<?xml version="1.0" encoding="UTF-8" standalone="no"?>
<svg
   xmlns:dc="http://purl.org/dc/elements/1.1/"
   xmlns:cc="http://creativecommons.org/ns#"
   xmlns:rdf="http://www.w3.org/1999/02/22-rdf-syntax-ns#"
   xmlns:svg="http://www.w3.org/2000/svg"
   xmlns="http://www.w3.org/2000/svg"
   xmlns:sodipodi="http://sodipodi.sourceforge.net/DTD/sodipodi-0.dtd"
   xmlns:inkscape="http://www.inkscape.org/namespaces/inkscape"
   id="svg"
   version="1.1"
   width="400"
   height="400"
   viewBox="0, 0, 400,400"
   sodipodi:docname="image2vector.svg"
   inkscape:version="0.92.5 (2060ec1f9f, 2020-04-08)">
  <metadata
     id="metadata14">
    <rdf:RDF>
      <cc:Work
         rdf:about="">
        <dc:format>image/svg+xml</dc:format>
        <dc:type
           rdf:resource="http://purl.org/dc/dcmitype/StillImage" />
      </cc:Work>
    </rdf:RDF>
  </metadata>
  <defs
     id="defs12" />
  <sodipodi:namedview
     pagecolor="#ffffff"
     bordercolor="#666666"
     borderopacity="1"
     objecttolerance="10"
     gridtolerance="10"
     guidetolerance="10"
     inkscape:pageopacity="0"
     inkscape:pageshadow="2"
     inkscape:window-width="2560"
     inkscape:window-height="1387"
     id="namedview10"
     showgrid="false"
     inkscape:snap-smooth-nodes="true"
     inkscape:zoom="2.05"
     inkscape:cx="507.78015"
     inkscape:cy="326.3332"
     inkscape:window-x="0"
     inkscape:window-y="25"
     inkscape:window-maximized="1"
     inkscape:current-layer="svgg" />
  <g
     id="svgg">
    <path
       id="path0"
       d="M104.698 0.940 C 96.931 3.052,94.659 4.934,91.344 12.000 C 88.552 17.954,85.638 23.514,83.484 27.000 C 80.839 31.279,72.730 45.376,71.378 48.043 C 69.241 52.260,68.390 55.190,67.832 60.256 C 67.189 66.091,67.247 65.999,62.417 68.897 C 53.352 74.335,46.419 79.009,40.345 83.776 C 11.957 106.058,7.883 110.259,5.794 119.400 C 5.442 120.940,4.636 123.833,4.002 125.828 C 3.330 127.943,2.662 131.279,2.401 133.828 C 2.154 136.233,1.520 139.730,0.992 141.600 L 0.031 145.000 0.054 173.600 L 0.077 202.200 1.010 205.200 C 1.523 206.850,2.153 209.010,2.409 210.000 C 2.665 210.990,3.507 213.330,4.279 215.200 C 5.860 219.030,6.109 221.913,5.092 224.600 C 4.759 225.480,4.100 227.250,3.628 228.533 C 1.301 234.859,1.418 252.101,3.839 259.583 C 4.375 261.242,5.085 264.604,5.416 267.054 C 5.746 269.504,6.466 272.830,7.015 274.445 C 8.444 278.645,8.616 280.901,7.807 284.841 C 6.214 292.600,7.805 299.132,12.368 303.564 C 21.707 312.635,50.961 327.122,63.800 329.034 C 68.464 329.728,68.720 329.789,71.532 330.887 C 73.590 331.690,73.717 331.831,75.212 334.959 C 80.597 346.226,89.713 357.097,98.800 363.086 C 111.153 371.227,110.821 371.040,121.200 375.706 C 124.390 377.140,128.350 378.893,130.000 379.602 C 131.650 380.312,134.890 381.751,137.200 382.801 C 144.559 386.145,148.476 387.872,153.400 389.941 C 156.040 391.051,162.022 393.752,166.693 395.944 C 175.208 399.940,178.855 400.963,178.490 399.255 C 178.430 398.972,178.568 398.856,178.797 398.998 C 179.026 399.139,179.108 399.425,178.980 399.632 C 178.835 399.866,190.556 400.003,210.003 399.995 L 241.259 399.982 243.645 398.777 C 244.957 398.115,245.924 397.401,245.795 397.191 C 245.661 396.976,245.872 396.909,246.279 397.037 C 246.969 397.256,246.969 397.240,246.288 396.680 C 245.636 396.143,245.632 396.073,246.239 395.840 C 246.603 395.701,247.146 395.789,247.446 396.038 C 248.338 396.778,249.422 396.159,248.745 395.295 C 248.253 394.668,248.268 394.653,248.892 395.143 C 249.491 395.612,249.838 395.537,251.459 394.586 C 253.204 393.564,253.283 393.450,252.591 392.944 C 252.182 392.645,252.025 392.400,252.244 392.400 C 252.462 392.400,252.842 392.602,253.089 392.849 C 253.860 393.620,256.185 391.716,255.517 390.861 C 255.057 390.272,255.076 390.259,255.690 390.741 C 256.726 391.552,260.693 388.655,259.913 387.656 C 259.457 387.073,259.477 387.060,260.089 387.540 C 261.020 388.269,262.242 387.240,261.474 386.374 C 261.080 385.929,261.116 385.926,261.686 386.357 C 262.723 387.139,265.081 385.440,264.317 384.461 C 263.858 383.874,263.877 383.860,264.482 384.334 C 265.415 385.064,266.211 384.549,265.519 383.664 C 265.058 383.074,265.076 383.059,265.682 383.534 C 266.615 384.264,267.411 383.749,266.719 382.864 C 266.260 382.277,266.277 382.260,266.870 382.724 C 267.445 383.173,267.862 383.034,269.805 381.744 C 271.864 380.377,272.005 380.193,271.358 379.720 C 270.967 379.434,270.825 379.200,271.044 379.200 C 271.262 379.200,271.640 379.400,271.885 379.645 C 272.599 380.359,273.344 379.663,272.719 378.864 C 272.257 378.272,272.275 378.259,272.889 378.740 C 273.929 379.555,276.683 377.842,275.914 376.858 C 275.458 376.274,275.477 376.260,276.082 376.734 C 277.015 377.464,277.811 376.949,277.119 376.064 C 276.658 375.474,276.676 375.459,277.282 375.934 C 278.215 376.664,279.011 376.149,278.319 375.264 C 277.858 374.674,277.876 374.659,278.482 375.134 C 279.415 375.864,280.211 375.349,279.519 374.464 C 279.059 373.875,279.076 373.860,279.677 374.330 C 280.256 374.783,280.627 374.701,282.228 373.762 C 283.954 372.751,284.045 372.622,283.375 372.132 C 282.975 371.839,282.825 371.600,283.044 371.600 C 283.262 371.600,283.650 371.810,283.907 372.067 C 284.263 372.423,285.066 372.079,287.287 370.617 C 292.511 367.178,292.909 366.818,292.320 366.065 C 291.853 365.468,291.872 365.457,292.512 365.959 C 293.526 366.755,295.476 365.037,294.695 364.035 C 294.256 363.471,294.280 363.463,294.912 363.959 C 295.800 364.656,299.062 361.797,298.353 360.943 C 298.095 360.632,298.108 360.381,298.390 360.206 C 298.627 360.060,298.770 360.156,298.710 360.420 C 298.403 361.761,299.768 360.860,302.967 357.611 C 306.159 354.369,306.454 353.944,305.955 353.307 C 305.462 352.679,305.472 352.656,306.039 353.099 C 307.034 353.874,308.349 352.320,307.555 351.308 C 307.066 350.685,307.074 350.658,307.619 351.082 C 308.642 351.878,311.585 347.546,310.726 346.510 C 310.388 346.104,310.397 345.844,310.761 345.483 C 311.142 345.105,311.193 345.143,310.996 345.660 C 310.858 346.022,310.942 346.440,311.181 346.589 C 311.450 346.754,312.394 345.269,313.634 342.729 C 314.743 340.458,315.527 339.050,315.378 339.600 C 314.812 341.680,310.985 348.619,308.788 351.550 C 302.205 360.331,294.877 366.358,277.606 377.200 C 271.587 380.978,264.425 385.875,256.400 391.697 C 254.090 393.372,249.950 395.923,247.200 397.365 C 244.450 398.806,242.429 399.989,242.708 399.993 C 244.408 400.017,252.749 395.115,259.395 390.187 C 264.279 386.566,272.812 380.771,279.115 376.795 C 302.840 361.831,310.743 353.507,316.910 336.989 C 319.135 331.027,319.535 329.161,319.846 323.284 C 320.204 316.530,320.764 315.995,326.000 317.400 C 329.126 318.239,331.428 318.145,336.529 316.971 C 346.407 314.696,349.702 312.053,368.902 291.000 C 382.602 275.978,386.472 272.170,390.947 269.313 C 394.933 266.767,397.339 264.681,398.758 262.539 L 399.974 260.703 399.968 247.851 L 399.962 235.000 398.352 230.800 C 394.280 220.182,391.033 213.768,384.683 203.800 C 379.854 196.219,380.211 197.095,380.985 194.729 C 381.611 192.816,382.460 190.821,386.403 182.000 C 387.864 178.732,391.524 170.191,393.430 165.600 C 396.506 158.195,396.259 149.195,392.733 140.200 C 389.769 132.638,389.302 131.706,385.604 125.962 C 374.634 108.926,362.432 98.359,339.200 85.777 C 333.072 82.458,332.636 82.040,329.482 76.460 C 326.297 70.823,323.646 67.273,317.627 60.577 C 313.334 55.803,311.076 53.904,302.200 47.605 C 300.220 46.201,296.260 43.318,293.400 41.201 C 290.540 39.083,286.988 36.500,285.508 35.461 C 274.902 28.015,263.068 14.696,256.044 2.300 C 255.328 1.035,254.588 -0.000,254.401 -0.000 C 254.214 -0.000,255.060 1.665,256.280 3.700 C 266.421 20.611,274.481 28.602,298.547 45.600 C 314.803 57.082,322.478 64.908,329.017 76.670 C 331.265 80.713,333.178 83.154,335.000 84.306 C 335.440 84.584,335.260 84.555,334.600 84.241 C 333.081 83.520,331.608 81.926,330.208 79.488 C 329.253 77.825,329.025 77.643,328.455 78.088 C 327.895 78.526,327.868 78.513,328.266 78.000 C 329.054 76.986,327.829 74.523,326.899 75.252 C 326.271 75.744,326.254 75.731,326.728 75.126 C 327.529 74.101,326.630 72.525,325.672 73.274 C 325.073 73.743,325.058 73.726,325.534 73.118 C 326.264 72.185,325.749 71.389,324.864 72.081 C 324.274 72.542,324.259 72.524,324.734 71.918 C 325.464 70.985,324.949 70.189,324.064 70.881 C 323.470 71.345,323.458 71.326,323.949 70.700 C 324.734 69.699,323.821 68.535,322.847 69.295 C 322.271 69.745,322.261 69.723,322.755 69.092 C 323.484 68.164,322.234 66.508,321.355 67.237 C 320.945 67.578,320.870 67.473,321.010 66.751 C 321.128 66.133,320.839 65.467,320.132 64.729 C 319.126 63.679,318.074 63.534,318.670 64.528 C 318.829 64.792,318.654 64.757,318.272 64.447 C 317.737 64.013,317.691 63.772,318.061 63.326 C 318.442 62.868,318.122 62.344,316.398 60.598 C 314.520 58.696,313.100 57.988,313.852 59.328 C 313.998 59.587,313.376 59.093,312.469 58.229 C 311.320 57.134,310.938 56.516,311.209 56.189 C 311.895 55.362,310.187 54.154,309.308 54.845 C 308.674 55.342,308.654 55.331,309.117 54.739 C 309.890 53.749,307.516 52.056,306.486 52.863 C 305.880 53.338,305.859 53.325,306.305 52.753 C 307.065 51.779,305.901 50.866,304.900 51.651 C 304.278 52.139,304.256 52.128,304.705 51.553 C 305.465 50.579,304.301 49.666,303.300 50.451 C 302.675 50.942,302.655 50.930,303.117 50.339 C 303.890 49.349,301.516 47.656,300.486 48.463 C 299.875 48.941,299.857 48.927,300.321 48.334 C 301.098 47.340,297.518 44.855,296.480 45.667 C 295.882 46.136,295.860 46.123,296.299 45.560 C 297.073 44.568,289.919 39.252,288.893 40.057 C 288.275 40.541,288.256 40.528,288.717 39.939 C 289.316 39.172,287.204 37.303,286.341 37.837 C 286.064 38.008,285.984 37.950,286.143 37.692 C 286.490 37.131,284.148 35.461,283.541 35.837 C 283.270 36.004,283.184 35.950,283.334 35.707 C 283.816 34.928,282.489 34.232,281.700 34.851 C 281.078 35.339,281.056 35.328,281.505 34.753 C 282.265 33.779,281.101 32.866,280.100 33.651 C 279.480 34.137,279.457 34.127,279.899 33.561 C 280.674 32.566,279.120 31.251,278.108 32.045 C 277.484 32.534,277.457 32.526,277.885 31.977 C 278.525 31.156,271.261 23.699,270.531 24.429 C 270.210 24.750,270.007 24.735,269.783 24.373 C 269.592 24.064,269.641 23.978,269.911 24.145 C 270.149 24.292,270.469 24.213,270.620 23.967 C 271.028 23.308,266.774 19.124,266.189 19.609 C 265.540 20.148,265.110 19.590,265.662 18.925 C 266.373 18.069,264.516 16.218,263.635 16.905 C 263.074 17.343,263.064 17.319,263.549 16.700 C 264.334 15.699,263.421 14.535,262.447 15.295 C 261.879 15.738,261.864 15.718,262.323 15.131 C 263.114 14.120,257.003 4.950,256.039 5.701 C 255.479 6.138,255.465 6.117,255.925 5.529 C 256.743 4.483,255.448 2.110,254.475 2.872 C 253.869 3.346,253.856 3.329,254.347 2.702 C 254.813 2.108,254.803 1.865,254.282 1.069 C 253.586 0.007,252.369 -0.221,252.668 0.767 C 252.812 1.239,252.745 1.220,252.407 0.694 C 251.979 0.028,250.018 -0.011,217.885 0.007 L 183.817 0.026 177.609 3.250 C 174.194 5.024,170.140 7.390,168.600 8.508 C 164.130 11.752,164.535 11.744,157.935 8.725 C 154.781 7.282,151.210 5.884,150.000 5.617 C 148.790 5.351,146.270 4.624,144.400 4.002 C 142.530 3.380,138.750 2.579,136.000 2.222 C 133.250 1.866,129.830 1.299,128.400 0.962 C 123.474 -0.197,108.927 -0.211,104.698 0.940 M117.500 0.697 C 116.015 0.774,113.585 0.774,112.100 0.697 C 110.615 0.620,111.830 0.557,114.800 0.557 C 117.770 0.557,118.985 0.620,117.500 0.697 M180.431 2.801 C 176.260 4.854,174.832 6.000,176.447 6.000 C 176.667 6.000,176.719 5.792,176.562 5.538 C 176.378 5.241,176.453 5.185,176.773 5.383 C 177.118 5.597,177.142 5.818,176.852 6.108 C 176.561 6.399,176.255 6.378,175.847 6.039 C 175.378 5.650,174.933 5.720,173.616 6.392 C 172.082 7.174,171.683 8.358,173.140 7.804 C 173.657 7.607,173.695 7.658,173.317 8.039 C 172.938 8.422,172.702 8.417,172.219 8.016 C 171.253 7.214,169.326 8.571,170.073 9.527 C 170.546 10.131,170.528 10.144,169.900 9.651 C 168.899 8.866,167.735 9.779,168.495 10.753 C 168.940 11.323,168.919 11.337,168.324 10.871 C 167.748 10.420,167.470 10.472,166.458 11.221 C 165.803 11.704,164.781 12.100,164.185 12.100 C 163.135 12.100,158.251 10.016,158.565 9.702 C 158.650 9.616,159.632 10.008,160.747 10.573 C 163.174 11.803,165.044 11.870,166.400 10.775 C 169.922 7.931,183.206 0.427,184.755 0.407 C 185.060 0.403,183.114 1.480,180.431 2.801 M124.105 1.082 C 123.614 1.177,122.714 1.179,122.105 1.087 C 121.497 0.995,121.900 0.917,123.000 0.914 C 124.100 0.911,124.597 0.987,124.105 1.082 M105.000 1.828 C 103.900 2.134,102.820 2.369,102.600 2.350 C 101.923 2.292,105.348 1.261,106.200 1.267 C 106.640 1.269,106.100 1.522,105.000 1.828 M127.100 1.476 C 126.715 1.576,126.085 1.576,125.700 1.476 C 125.315 1.375,125.630 1.293,126.400 1.293 C 127.170 1.293,127.485 1.375,127.100 1.476 M99.746 3.611 C 97.477 4.712,95.661 6.321,93.888 8.804 C 93.186 9.788,93.183 9.788,93.633 8.842 C 94.838 6.315,99.833 2.383,101.800 2.414 C 102.020 2.418,101.096 2.956,99.746 3.611 M137.500 3.076 C 137.115 3.176,136.485 3.176,136.100 3.076 C 135.715 2.975,136.030 2.893,136.800 2.893 C 137.570 2.893,137.885 2.975,137.500 3.076 M145.000 4.800 C 146.100 5.206,146.730 5.538,146.400 5.538 C 146.070 5.538,144.900 5.206,143.800 4.800 C 142.700 4.394,142.070 4.062,142.400 4.062 C 142.730 4.062,143.900 4.394,145.000 4.800 M151.000 6.400 C 152.019 6.838,150.968 6.838,149.600 6.400 C 148.796 6.143,148.757 6.077,149.400 6.068 C 149.840 6.062,150.560 6.211,151.000 6.400 M156.400 8.600 C 157.390 9.130,158.020 9.564,157.800 9.564 C 157.580 9.564,156.590 9.130,155.600 8.600 C 154.610 8.070,153.980 7.636,154.200 7.636 C 154.420 7.636,155.410 8.070,156.400 8.600 M91.935 12.700 C 89.000 19.180,88.027 21.200,87.839 21.200 C 87.729 21.200,88.241 19.895,88.976 18.300 C 89.711 16.705,90.863 14.185,91.535 12.700 C 92.208 11.215,92.848 10.000,92.958 10.000 C 93.068 10.000,92.608 11.215,91.935 12.700 M87.049 22.700 C 86.180 24.373,78.851 36.486,78.543 36.760 C 78.127 37.129,78.362 36.715,83.011 28.900 C 86.973 22.242,88.525 19.859,87.049 22.700 M78.284 37.500 C 78.194 37.665,76.743 40.239,75.059 43.220 C 73.376 46.201,71.372 50.161,70.607 52.020 C 69.841 53.879,69.211 55.165,69.207 54.878 C 69.187 53.460,77.519 37.200,78.265 37.200 C 78.365 37.200,78.374 37.335,78.284 37.500 M164.201 42.825 C 170.744 44.539,174.339 46.047,189.200 53.306 C 198.535 57.867,208.352 61.495,221.400 65.206 C 233.186 68.558,235.088 69.166,242.200 71.856 C 261.138 79.018,269.790 86.881,274.709 101.400 L 276.200 105.800 276.111 113.337 C 276.004 122.379,276.031 122.460,280.992 127.625 C 289.692 136.683,300.329 156.751,304.603 172.170 C 310.380 193.015,311.109 209.791,307.048 228.400 C 305.184 236.939,304.589 238.783,300.918 247.400 C 289.505 274.184,266.127 299.255,240.574 312.111 C 229.277 317.795,224.111 319.735,211.093 323.180 C 200.334 326.028,200.048 326.160,195.400 330.427 C 188.888 336.405,183.771 339.314,178.185 340.213 C 176.059 340.555,172.132 341.361,169.460 342.004 C 142.966 348.381,119.871 339.252,96.700 313.245 C 87.415 302.823,86.384 301.406,83.807 295.522 C 82.787 293.192,81.017 289.673,79.876 287.704 C 78.734 285.734,74.840 278.974,71.223 272.682 C 63.842 259.842,61.470 256.336,55.961 250.119 C 37.598 229.400,32.435 217.322,32.407 195.028 C 32.376 170.112,46.587 142.247,67.825 125.578 C 78.770 116.988,79.477 116.021,80.853 107.747 C 82.948 95.150,85.509 88.084,91.770 77.624 C 96.008 70.545,97.034 69.276,101.930 65.059 C 104.058 63.225,107.330 60.317,109.200 58.595 C 118.187 50.322,131.919 44.006,143.600 42.773 C 156.003 41.465,159.034 41.472,164.201 42.825 M311.435 56.343 C 311.178 56.759,313.363 58.903,313.700 58.566 C 313.835 58.432,313.852 58.080,313.739 57.785 C 313.453 57.040,311.687 55.935,311.435 56.343 M68.676 59.500 C 68.575 59.885,68.493 59.570,68.493 58.800 C 68.493 58.030,68.575 57.715,68.676 58.100 C 68.776 58.485,68.776 59.115,68.676 59.500 M68.282 63.700 C 68.187 64.195,68.109 63.790,68.109 62.800 C 68.109 61.810,68.187 61.405,68.282 61.900 C 68.378 62.395,68.378 63.205,68.282 63.700 M68.112 65.586 C 68.225 66.019,68.201 66.334,68.059 66.288 C 67.281 66.032,64.860 68.592,65.320 69.184 C 65.739 69.722,65.713 69.732,65.111 69.260 C 64.309 68.632,61.373 70.108,61.859 70.896 C 62.014 71.146,61.935 71.207,61.670 71.043 C 60.796 70.503,59.477 71.565,60.074 72.328 C 60.542 72.925,60.525 72.941,59.926 72.472 C 59.391 72.054,59.064 72.044,58.353 72.425 C 57.488 72.888,57.482 72.925,58.204 73.453 C 58.616 73.754,58.775 74.000,58.556 74.000 C 58.338 74.000,57.960 73.800,57.715 73.555 C 57.001 72.841,56.256 73.537,56.881 74.336 C 57.342 74.926,57.324 74.941,56.718 74.466 C 55.785 73.736,54.989 74.251,55.681 75.136 C 56.126 75.705,56.114 75.735,55.600 75.346 C 55.192 75.037,54.680 75.014,54.000 75.274 C 53.028 75.644,53.022 75.671,53.776 76.228 C 54.204 76.542,54.375 76.800,54.156 76.800 C 53.938 76.800,53.560 76.600,53.315 76.355 C 52.601 75.641,51.856 76.337,52.481 77.136 C 52.926 77.705,52.914 77.735,52.400 77.346 C 51.405 76.593,49.751 77.407,50.454 78.304 C 50.945 78.930,50.931 78.946,50.318 78.466 C 49.385 77.736,48.589 78.251,49.281 79.136 C 49.742 79.726,49.724 79.741,49.118 79.266 C 48.185 78.536,47.389 79.051,48.081 79.936 C 48.543 80.528,48.525 80.541,47.911 80.060 C 46.980 79.331,45.758 80.360,46.526 81.226 C 46.921 81.672,46.884 81.673,46.300 81.232 C 45.292 80.469,44.141 81.387,44.895 82.353 C 45.346 82.931,45.324 82.940,44.686 82.439 C 43.736 81.693,42.141 83.139,42.931 84.031 C 43.309 84.459,43.264 84.458,42.692 84.026 C 41.636 83.225,38.474 85.864,39.331 86.831 C 39.709 87.259,39.664 87.258,39.092 86.826 C 38.076 86.056,36.534 87.377,37.301 88.361 C 37.744 88.928,37.721 88.938,37.092 88.445 C 36.164 87.716,34.508 88.966,35.237 89.845 C 35.578 90.255,35.474 90.330,34.758 90.192 C 33.458 89.942,32.235 91.106,32.901 91.961 C 33.345 92.530,33.322 92.538,32.686 92.039 C 31.736 91.293,30.141 92.739,30.931 93.631 C 31.299 94.048,31.247 94.045,30.686 93.620 C 29.732 92.897,28.150 94.349,28.931 95.231 C 29.319 95.670,29.281 95.672,28.712 95.242 C 28.006 94.709,27.890 94.762,25.583 96.685 C 22.684 99.101,22.064 99.795,22.423 100.228 C 22.684 100.542,22.588 100.874,22.128 101.247 C 21.746 101.557,21.571 101.592,21.730 101.328 C 22.452 100.124,20.965 100.467,19.574 101.825 C 18.383 102.988,18.123 103.466,18.459 103.871 C 18.877 104.375,18.757 104.519,18.100 104.300 C 17.935 104.245,17.845 104.065,17.900 103.900 C 18.187 103.039,17.066 103.917,14.205 106.795 C 11.716 109.299,11.134 110.094,11.515 110.475 C 11.782 110.742,12.000 111.138,12.000 111.356 C 12.000 111.575,11.757 111.421,11.461 111.016 C 11.059 110.467,10.844 110.405,10.616 110.774 C 10.447 111.047,10.510 111.470,10.755 111.715 C 11.000 111.960,11.200 112.338,11.200 112.556 C 11.200 112.775,10.954 112.616,10.653 112.204 C 10.045 111.374,8.859 112.725,9.411 113.618 C 9.548 113.839,9.421 113.970,9.130 113.910 C 8.811 113.844,8.612 114.151,8.630 114.680 C 8.646 115.164,8.526 115.478,8.364 115.378 C 8.065 115.193,7.136 117.433,6.448 120.000 C 6.241 120.770,6.056 121.101,6.036 120.736 C 5.688 114.334,12.086 106.986,31.600 91.374 C 45.959 79.886,47.014 79.117,56.441 73.252 C 66.335 67.098,67.600 66.204,67.600 65.370 C 67.600 64.553,67.872 64.668,68.112 65.586 M349.881 92.662 C 366.747 102.879,381.946 118.191,388.152 131.216 C 388.938 132.865,388.684 132.501,384.842 126.454 C 375.556 111.840,365.345 102.305,347.705 91.774 C 338.347 86.187,337.539 85.675,339.800 86.758 C 340.680 87.179,345.216 89.836,349.881 92.662 M4.970 125.674 C 4.579 126.843,4.024 128.790,3.737 130.000 C 3.247 132.065,3.228 132.090,3.423 130.400 C 3.646 128.466,5.244 123.110,5.517 123.383 C 5.607 123.474,5.361 124.505,4.970 125.674 M3.083 134.495 C 2.987 134.993,2.905 134.680,2.901 133.800 C 2.896 132.920,2.975 132.513,3.075 132.895 C 3.175 133.278,3.179 133.998,3.083 134.495 M390.549 136.400 C 390.686 136.950,390.452 136.680,390.029 135.800 C 389.606 134.920,389.253 134.020,389.246 133.800 C 389.225 133.188,390.267 135.267,390.549 136.400 M3.333 139.198 C 3.740 139.722,3.710 139.729,3.100 139.251 C 2.232 138.570,2.059 140.257,2.900 141.201 C 3.322 141.674,3.296 141.683,2.736 141.261 C 2.141 140.814,1.987 141.111,1.266 144.081 C 0.824 145.906,0.451 147.040,0.438 146.600 C 0.425 146.160,0.862 144.100,1.407 142.021 C 1.953 139.943,2.429 137.693,2.464 137.021 C 2.526 135.845,2.534 135.851,2.697 137.198 C 2.789 137.968,3.076 138.868,3.333 139.198 M393.065 143.068 C 392.974 143.159,392.588 142.461,392.206 141.517 C 391.100 138.780,391.101 138.417,392.209 140.752 C 392.770 141.935,393.156 142.978,393.065 143.068 M395.092 154.912 C 395.008 155.840,394.941 154.980,394.942 153.000 C 394.943 151.020,395.012 150.260,395.095 151.312 C 395.177 152.364,395.176 153.984,395.092 154.912 M393.000 165.076 C 392.642 165.694,392.471 165.840,392.620 165.400 C 392.769 164.960,392.992 164.245,393.115 163.810 C 393.239 163.376,393.410 163.230,393.495 163.486 C 393.581 163.742,393.358 164.458,393.000 165.076 M391.647 168.262 C 391.200 169.108,390.827 169.671,390.818 169.514 C 390.789 169.054,392.128 166.394,392.301 166.567 C 392.387 166.654,392.093 167.416,391.647 168.262 M389.247 173.862 C 388.800 174.708,388.427 175.271,388.418 175.114 C 388.389 174.654,389.728 171.994,389.901 172.167 C 389.987 172.254,389.693 173.016,389.247 173.862 M387.047 179.065 C 386.709 179.689,386.425 180.073,386.416 179.919 C 386.389 179.443,387.320 177.586,387.496 177.763 C 387.588 177.854,387.386 178.440,387.047 179.065 M384.933 183.933 C 384.348 185.291,383.802 186.336,383.722 186.255 C 383.641 186.175,384.057 185.000,384.644 183.644 C 385.232 182.289,385.777 181.244,385.856 181.322 C 385.934 181.401,385.519 182.576,384.933 183.933 M382.646 189.061 C 382.091 190.127,381.629 190.870,381.619 190.711 C 381.590 190.259,383.332 186.799,383.503 186.970 C 383.587 187.053,383.201 187.994,382.646 189.061 M380.411 194.571 C 379.751 196.308,379.929 197.710,381.014 199.307 C 381.572 200.128,381.939 200.800,381.829 200.800 C 381.315 200.800,379.600 197.697,379.600 196.767 C 379.600 195.628,380.390 193.057,380.657 193.324 C 380.748 193.415,380.637 193.976,380.411 194.571 M2.445 207.095 C 2.691 208.027,3.035 208.702,3.209 208.594 C 3.383 208.487,3.437 208.738,3.328 209.153 C 3.220 209.568,3.884 211.774,4.804 214.054 C 5.849 216.646,6.531 219.024,6.622 220.400 L 6.768 222.600 6.401 220.317 C 6.199 219.062,5.418 216.542,4.667 214.717 C 3.213 211.186,0.384 201.718,0.424 200.518 C 0.446 199.877,1.115 202.057,2.445 207.095 M383.723 203.169 C 384.791 204.988,384.280 204.663,382.985 202.700 C 382.368 201.765,382.120 201.211,382.432 201.469 C 382.744 201.727,383.325 202.492,383.723 203.169 M388.200 210.800 C 388.541 211.460,388.731 212.000,388.621 212.000 C 388.511 212.000,388.141 211.460,387.800 210.800 C 387.459 210.140,387.269 209.600,387.379 209.600 C 387.489 209.600,387.859 210.140,388.200 210.800 M4.388 229.216 C 3.741 231.077,3.208 232.295,3.205 231.923 C 3.199 231.164,5.230 225.497,5.435 225.702 C 5.507 225.774,5.036 227.355,4.388 229.216 M3.076 234.700 C 2.975 235.085,2.893 234.770,2.893 234.000 C 2.893 233.230,2.975 232.915,3.076 233.300 C 3.176 233.685,3.176 234.315,3.076 234.700 M2.697 245.700 C 2.621 247.295,2.559 245.990,2.559 242.800 C 2.559 239.610,2.621 238.305,2.697 239.900 C 2.773 241.495,2.773 244.105,2.697 245.700 M3.083 252.495 C 2.987 252.993,2.905 252.680,2.901 251.800 C 2.896 250.920,2.975 250.513,3.075 250.895 C 3.175 251.278,3.179 251.998,3.083 252.495 M5.139 261.200 C 5.139 261.530,4.897 261.170,4.600 260.400 C 4.303 259.630,4.061 258.730,4.061 258.400 C 4.061 258.070,4.303 258.430,4.600 259.200 C 4.897 259.970,5.139 260.870,5.139 261.200 M398.435 261.935 C 397.884 262.964,393.194 267.252,391.668 268.123 C 389.683 269.254,390.181 268.659,392.515 267.109 C 393.679 266.336,395.524 264.701,396.615 263.474 C 398.785 261.036,399.024 260.834,398.435 261.935 M389.780 269.122 C 389.571 269.298,388.063 270.513,386.428 271.822 C 384.794 273.130,380.855 277.035,377.675 280.500 C 374.495 283.965,371.808 286.800,371.703 286.800 C 371.497 286.800,376.541 281.192,380.985 276.481 C 383.557 273.754,389.310 268.800,389.904 268.800 C 390.045 268.800,389.989 268.945,389.780 269.122 M7.132 272.000 C 7.139 272.368,7.011 272.290,6.800 271.800 C 6.611 271.360,6.462 270.640,6.468 270.200 C 6.482 269.254,7.112 270.961,7.132 272.000 M9.083 281.295 C 8.987 281.793,8.905 281.480,8.901 280.600 C 8.896 279.720,8.975 279.313,9.075 279.695 C 9.175 280.078,9.179 280.798,9.083 281.295 M8.676 284.700 C 8.575 285.085,8.493 284.770,8.493 284.000 C 8.493 283.230,8.575 282.915,8.676 283.300 C 8.776 283.685,8.776 284.315,8.676 284.700 M8.029 289.407 C 7.775 292.287,7.701 292.563,7.660 290.800 C 7.611 288.706,7.974 285.441,8.228 285.694 C 8.293 285.760,8.204 287.431,8.029 289.407 M371.600 287.313 C 371.600 287.374,370.475 288.499,369.100 289.813 L 366.600 292.200 368.987 289.700 C 371.205 287.378,371.600 287.017,371.600 287.313 M362.350 297.300 C 356.273 303.859,351.682 308.450,350.100 309.550 C 348.027 310.992,348.596 310.255,350.968 308.424 C 352.161 307.504,356.135 303.522,359.800 299.576 C 363.466 295.629,366.560 292.400,366.677 292.400 C 366.794 292.400,364.847 294.605,362.350 297.300 M9.010 297.124 C 8.810 297.324,7.995 294.369,8.038 293.600 C 8.056 293.270,8.317 293.894,8.616 294.986 C 8.916 296.079,9.093 297.040,9.010 297.124 M13.778 303.510 C 16.508 306.006,20.814 309.040,26.400 312.405 C 30.458 314.849,32.460 316.241,30.400 315.185 C 20.493 310.108,9.179 300.860,9.204 297.860 C 9.206 297.607,9.732 298.314,10.373 299.432 C 11.014 300.549,12.546 302.384,13.778 303.510 M344.400 313.392 C 344.400 313.634,341.341 315.206,340.916 315.182 C 340.742 315.172,341.410 314.730,342.400 314.200 C 344.417 313.120,344.400 313.127,344.400 313.392 M37.427 318.706 C 37.249 318.885,31.600 316.065,31.600 315.798 C 31.600 315.693,32.944 316.271,34.586 317.084 C 36.228 317.897,37.507 318.627,37.427 318.706 M320.364 316.419 C 320.841 316.164,321.989 316.024,322.915 316.108 L 324.600 316.260 322.749 316.330 C 320.292 316.423,319.875 317.029,319.574 320.947 L 319.324 324.200 319.262 321.380 C 319.227 319.776,318.984 318.318,318.700 317.999 C 318.285 317.534,318.326 317.535,318.946 318.007 C 319.619 318.518,319.675 318.497,319.522 317.787 C 319.429 317.354,319.138 317.045,318.876 317.100 C 318.358 317.209,318.235 316.699,318.673 316.261 C 318.823 316.111,319.070 316.189,319.222 316.435 C 319.425 316.764,319.729 316.759,320.364 316.419 M40.000 319.600 C 40.770 320.022,41.220 320.366,41.000 320.366 C 40.780 320.366,39.970 320.022,39.200 319.600 C 38.430 319.178,37.980 318.834,38.200 318.834 C 38.420 318.834,39.230 319.178,40.000 319.600 M44.000 321.400 C 44.550 321.714,44.820 321.972,44.600 321.972 C 44.380 321.972,43.750 321.714,43.200 321.400 C 42.650 321.086,42.380 320.828,42.600 320.828 C 42.820 320.828,43.450 321.086,44.000 321.400 M49.649 323.806 C 50.832 324.360,51.350 324.697,50.800 324.555 C 49.756 324.287,46.816 322.848,47.249 322.818 C 47.385 322.808,48.465 323.253,49.649 323.806 M55.726 325.983 C 57.225 326.477,58.380 326.953,58.293 327.040 C 58.099 327.234,52.362 325.307,52.035 324.938 C 51.906 324.792,52.070 324.765,52.400 324.878 C 52.730 324.991,54.226 325.488,55.726 325.983 M319.083 327.295 C 318.987 327.793,318.905 327.480,318.901 326.600 C 318.896 325.720,318.975 325.313,319.075 325.695 C 319.175 326.078,319.179 326.798,319.083 327.295 M60.800 327.600 C 61.604 327.857,61.643 327.923,61.000 327.932 C 60.560 327.938,59.840 327.789,59.400 327.600 C 58.381 327.162,59.432 327.162,60.800 327.600 M318.671 329.840 C 318.411 331.441,315.964 338.498,315.745 338.278 C 315.669 338.202,316.235 336.273,317.003 333.991 C 317.771 331.710,318.400 329.518,318.400 329.121 C 318.400 328.725,318.514 328.400,318.652 328.400 C 318.791 328.400,318.799 329.048,318.671 329.840 M73.320 330.682 C 74.024 331.057,74.748 331.323,74.930 331.272 C 75.111 331.222,75.153 331.352,75.023 331.563 C 74.526 332.368,76.086 334.822,76.770 334.310 C 77.297 333.916,77.318 333.931,76.900 334.399 C 76.212 335.170,76.268 335.807,76.972 335.223 C 77.763 334.567,78.693 336.165,78.004 336.995 C 77.661 337.409,77.761 337.947,78.424 339.248 C 79.242 340.850,79.331 340.909,79.848 340.202 C 80.152 339.787,80.400 339.625,80.400 339.844 C 80.400 340.062,80.203 340.437,79.963 340.677 C 79.192 341.448,80.281 342.988,81.128 342.326 C 81.732 341.853,81.744 341.871,81.247 342.505 C 79.961 344.144,94.651 360.446,96.269 359.175 C 96.923 358.660,96.948 358.667,96.501 359.239 C 95.726 360.234,97.280 361.549,98.292 360.755 C 98.927 360.257,98.946 360.268,98.481 360.864 C 97.789 361.749,98.585 362.264,99.518 361.534 C 100.124 361.059,100.142 361.074,99.681 361.664 C 98.989 362.549,99.785 363.064,100.718 362.334 C 101.326 361.858,101.343 361.873,100.874 362.472 C 100.277 363.235,101.596 364.297,102.470 363.757 C 102.738 363.591,102.814 363.654,102.655 363.911 C 102.227 364.604,103.169 364.921,103.918 364.334 C 104.524 363.859,104.542 363.874,104.081 364.464 C 103.389 365.349,104.185 365.864,105.118 365.134 C 105.724 364.659,105.742 364.674,105.281 365.264 C 104.589 366.149,105.385 366.664,106.318 365.934 C 106.924 365.459,106.942 365.474,106.481 366.064 C 105.789 366.949,106.585 367.464,107.518 366.734 C 108.124 366.259,108.142 366.274,107.681 366.864 C 107.056 367.663,107.801 368.359,108.515 367.645 C 108.760 367.400,109.138 367.200,109.356 367.200 C 109.575 367.200,109.429 367.437,109.034 367.726 C 108.152 368.370,108.503 368.637,113.592 371.196 C 116.531 372.673,117.068 372.825,117.781 372.381 C 118.495 371.937,118.536 371.949,118.104 372.472 C 117.518 373.181,125.533 377.136,126.432 376.580 C 126.728 376.398,126.821 376.442,126.667 376.692 C 126.207 377.436,128.687 378.186,129.500 377.549 C 130.120 377.063,130.143 377.073,129.701 377.640 C 129.273 378.189,129.424 378.380,130.766 378.985 C 132.306 379.679,133.907 379.494,132.743 378.756 C 132.444 378.567,132.395 378.409,132.633 378.406 C 133.345 378.396,133.620 378.893,133.190 379.412 C 132.526 380.212,134.990 381.063,135.900 380.349 C 136.519 379.864,136.543 379.874,136.106 380.434 C 135.522 381.183,139.105 383.153,140.021 382.587 C 140.322 382.401,140.423 382.439,140.273 382.682 C 139.942 383.217,142.986 384.579,143.627 384.183 C 143.925 383.999,144.022 384.041,143.870 384.286 C 143.550 384.805,149.875 387.734,150.663 387.431 C 150.981 387.309,151.140 387.374,151.015 387.576 C 150.628 388.201,152.394 388.501,153.119 387.933 C 153.718 387.464,153.740 387.477,153.301 388.040 C 152.873 388.589,153.024 388.780,154.366 389.385 C 155.944 390.096,157.448 389.894,156.343 389.120 C 155.904 388.812,155.915 388.772,156.400 388.911 C 156.730 389.006,156.949 389.370,156.887 389.721 C 156.749 390.504,158.222 391.354,159.120 391.009 C 159.688 390.791,159.697 390.706,159.189 390.385 C 158.865 390.180,158.795 390.009,159.033 390.006 C 159.769 389.996,160.015 390.500,159.548 391.063 C 158.985 391.740,159.650 391.769,160.401 391.100 C 160.869 390.682,160.884 390.703,160.489 391.231 C 159.818 392.128,164.523 394.460,165.304 393.617 C 165.710 393.180,165.654 393.134,165.000 393.365 C 164.390 393.580,164.310 393.536,164.665 393.179 C 164.921 392.921,165.342 392.840,165.600 393.000 C 165.928 393.203,165.943 393.417,165.649 393.711 C 165.123 394.237,170.175 396.972,171.052 396.635 C 171.376 396.511,171.549 396.559,171.435 396.743 C 170.986 397.470,175.110 398.970,175.885 398.361 C 176.536 397.850,176.551 397.862,176.051 398.500 C 175.586 399.093,175.586 399.205,176.051 399.232 C 176.353 399.249,176.410 399.342,176.178 399.439 C 175.945 399.536,172.255 397.977,167.978 395.975 C 163.700 393.972,157.140 391.011,153.400 389.395 C 149.660 387.778,144.350 385.439,141.600 384.196 C 138.850 382.953,134.710 381.121,132.400 380.125 C 115.757 372.947,111.130 370.596,102.750 365.060 C 89.796 356.501,81.542 347.151,75.156 333.801 C 74.598 332.633,73.635 331.427,72.841 330.901 C 71.236 329.837,71.504 329.715,73.320 330.682 M77.034 335.545 C 76.881 335.792,76.922 336.288,77.123 336.648 C 77.371 337.092,77.579 337.158,77.766 336.855 C 77.919 336.608,77.878 336.112,77.677 335.752 C 77.429 335.308,77.221 335.242,77.034 335.545 "
       stroke="none"
       fill-rule="evenodd"
       fill="#fc99ac" />
    <path
       id="path1"
       d="M256.282 2.500 C 263.279 14.509,273.918 26.779,283.340 33.704 C 285.507 35.297,289.519 38.263,292.255 40.295 C 294.991 42.328,298.348 44.749,299.715 45.676 C 312.828 54.573,323.016 64.735,328.365 74.258 C 332.675 81.929,333.152 82.487,337.149 84.552 C 339.157 85.589,340.800 86.348,340.800 86.238 C 340.800 86.128,339.182 85.202,337.205 84.181 C 333.280 82.154,333.491 82.405,328.491 73.776 C 326.240 69.892,323.909 66.867,318.565 60.900 C 313.560 55.311,312.925 54.755,305.192 49.200 C 298.250 44.214,288.491 37.094,283.000 33.010 C 273.950 26.278,259.189 8.898,256.016 1.239 C 255.734 0.558,255.350 0.000,255.164 0.000 C 254.978 0.000,255.481 1.125,256.282 2.500 M175.600 3.830 C 172.410 5.486,168.780 7.643,167.533 8.622 C 166.286 9.601,164.846 10.570,164.333 10.775 C 163.734 11.015,163.631 11.158,164.045 11.175 C 164.400 11.189,166.020 10.214,167.645 9.009 C 169.270 7.803,173.075 5.543,176.100 3.986 C 179.125 2.430,181.600 1.076,181.600 0.978 C 181.600 0.706,181.761 0.629,175.600 3.830 M100.600 1.786 C 99.055 2.493,99.774 2.503,101.600 1.800 C 102.370 1.503,102.730 1.255,102.400 1.248 C 102.070 1.242,101.260 1.483,100.600 1.786 M96.091 4.215 C 94.618 5.475,90.800 10.948,90.800 11.798 C 90.800 11.980,91.745 10.622,92.900 8.781 C 94.129 6.823,95.718 4.888,96.731 4.117 C 97.683 3.393,98.301 2.800,98.103 2.800 C 97.906 2.800,97.000 3.437,96.091 4.215 M153.400 6.633 C 156.914 8.118,157.318 8.178,154.600 6.810 C 153.280 6.146,151.930 5.606,151.600 5.611 C 151.270 5.615,152.080 6.075,153.400 6.633 M89.265 15.417 C 88.595 16.888,88.723 17.202,89.447 15.865 C 89.786 15.240,89.988 14.654,89.896 14.563 C 89.805 14.471,89.521 14.856,89.265 15.417 M87.000 20.000 C 86.224 21.540,85.680 22.800,85.790 22.800 C 85.900 22.800,86.624 21.540,87.400 20.000 C 88.176 18.460,88.720 17.200,88.610 17.200 C 88.500 17.200,87.776 18.460,87.000 20.000 M82.553 27.700 C 81.176 30.036,81.086 30.235,81.787 29.400 C 82.600 28.432,83.300 27.200,83.038 27.200 C 82.933 27.200,82.715 27.425,82.553 27.700 M80.200 31.600 C 79.859 32.260,79.669 32.800,79.779 32.800 C 79.889 32.800,80.259 32.260,80.600 31.600 C 80.941 30.940,81.131 30.400,81.021 30.400 C 80.911 30.400,80.541 30.940,80.200 31.600 M78.704 34.100 C 77.844 35.416,76.247 38.668,76.691 38.200 C 77.184 37.680,79.655 33.200,79.449 33.200 C 79.363 33.200,79.027 33.605,78.704 34.100 M74.181 42.100 C 73.143 43.915,72.216 45.535,72.123 45.700 C 72.029 45.865,72.038 46.000,72.141 46.000 C 72.293 46.000,73.654 43.729,76.277 39.100 C 76.371 38.935,76.362 38.800,76.259 38.800 C 76.155 38.800,75.220 40.285,74.181 42.100 M70.075 49.819 C 68.870 52.300,69.005 52.647,70.246 50.261 C 70.801 49.194,71.187 48.253,71.103 48.170 C 71.019 48.086,70.557 48.828,70.075 49.819 M67.693 58.400 C 67.693 59.170,67.775 59.485,67.876 59.100 C 67.976 58.715,67.976 58.085,67.876 57.700 C 67.775 57.315,67.693 57.630,67.693 58.400 M66.800 65.128 C 66.800 65.649,66.784 65.660,55.609 72.612 C 46.512 78.272,44.147 80.005,30.000 91.379 C 19.498 99.823,11.497 107.042,9.622 109.768 C 7.911 112.255,6.032 116.108,5.778 117.649 C 5.632 118.536,5.837 118.217,6.375 116.722 C 8.661 110.369,14.633 103.842,26.800 94.394 C 28.890 92.771,32.130 90.172,34.000 88.618 C 41.430 82.443,47.811 77.869,56.600 72.420 C 65.886 66.661,67.584 65.450,67.078 64.944 C 66.925 64.792,66.800 64.874,66.800 65.128 M342.000 86.935 C 342.000 87.037,342.601 87.475,343.335 87.908 C 344.069 88.341,345.194 89.011,345.835 89.395 L 347.000 90.095 346.000 89.267 C 344.857 88.321,342.000 86.656,342.000 86.935 M347.400 90.290 C 347.620 90.500,348.520 91.076,349.400 91.570 C 350.280 92.065,350.640 92.170,350.200 91.804 C 349.306 91.061,346.772 89.691,347.400 90.290 M351.200 92.579 C 351.200 92.689,351.740 93.059,352.400 93.400 C 353.060 93.741,353.600 93.931,353.600 93.821 C 353.600 93.711,353.060 93.341,352.400 93.000 C 351.740 92.659,351.200 92.469,351.200 92.579 M354.000 94.138 C 354.000 94.250,355.125 95.025,356.500 95.861 C 357.875 96.696,360.170 98.341,361.600 99.517 C 364.042 101.525,364.080 101.542,362.227 99.796 C 361.142 98.774,359.522 97.445,358.627 96.842 C 356.114 95.149,354.000 93.913,354.000 94.138 M371.496 108.317 C 374.250 111.113,377.584 114.705,378.905 116.300 C 380.227 117.895,381.395 119.200,381.502 119.200 C 382.195 119.200,370.629 106.561,368.012 104.457 C 367.175 103.785,368.743 105.522,371.496 108.317 M383.385 122.300 C 384.002 123.235,384.583 124.000,384.676 124.000 C 384.964 124.000,383.433 121.566,382.832 121.069 C 382.520 120.811,382.768 121.365,383.385 122.300 M175.674 124.812 C 162.357 127.123,153.576 132.337,143.027 144.200 C 124.404 165.141,124.064 191.538,142.163 211.092 C 147.147 216.476,147.147 216.913,142.159 222.042 C 134.388 230.034,134.553 234.754,143.047 247.509 C 155.722 266.542,172.091 273.332,198.358 270.453 C 243.171 265.540,272.166 223.301,258.800 182.400 C 255.033 170.872,242.006 149.394,234.569 142.448 C 219.885 128.735,195.373 121.395,175.674 124.812 M385.422 125.500 C 387.559 128.795,388.124 129.600,388.299 129.600 C 388.405 129.600,388.171 129.105,387.778 128.500 C 385.641 125.205,385.076 124.400,384.901 124.400 C 384.795 124.400,385.029 124.895,385.422 125.500 M3.246 126.439 C 3.001 127.143,2.812 128.008,2.827 128.360 C 2.841 128.712,3.104 128.197,3.409 127.216 C 4.049 125.162,3.915 124.522,3.246 126.439 M389.482 132.189 C 390.073 133.393,390.623 134.311,390.705 134.229 C 390.884 134.049,388.867 130.000,388.598 130.000 C 388.494 130.000,388.892 130.985,389.482 132.189 M2.109 133.200 C 2.109 134.190,2.187 134.595,2.282 134.100 C 2.378 133.605,2.378 132.795,2.282 132.300 C 2.187 131.805,2.109 132.210,2.109 133.200 M0.686 140.894 C 0.309 142.091,0.010 143.324,0.022 143.635 C 0.033 143.946,0.391 143.120,0.815 141.800 C 1.240 140.480,1.539 139.246,1.480 139.058 C 1.421 138.871,1.064 139.696,0.686 140.894 M392.434 139.400 C 392.434 139.620,392.778 140.430,393.200 141.200 C 393.622 141.970,393.966 142.420,393.966 142.200 C 393.966 141.980,393.622 141.170,393.200 140.400 C 392.778 139.630,392.434 139.180,392.434 139.400 M386.875 181.019 C 385.670 183.500,385.805 183.847,387.046 181.461 C 387.601 180.394,387.987 179.453,387.903 179.370 C 387.819 179.286,387.357 180.028,386.875 181.019 M381.049 194.615 C 380.912 194.973,380.815 195.566,380.834 195.933 C 380.853 196.300,381.027 196.069,381.221 195.420 C 381.598 194.158,381.465 193.533,381.049 194.615 M0.048 203.600 C 0.042 203.930,0.283 204.740,0.586 205.400 C 1.293 206.945,1.303 206.226,0.600 204.400 C 0.303 203.630,0.055 203.270,0.048 203.600 M1.256 207.200 C 1.256 207.530,1.411 208.160,1.600 208.600 C 1.817 209.104,1.944 209.178,1.944 208.800 C 1.944 208.470,1.789 207.840,1.600 207.400 C 1.383 206.896,1.256 206.822,1.256 207.200 M387.400 208.000 C 387.741 208.660,388.111 209.200,388.221 209.200 C 388.331 209.200,388.141 208.660,387.800 208.000 C 387.459 207.340,387.089 206.800,386.979 206.800 C 386.869 206.800,387.059 207.340,387.400 208.000 M3.234 213.800 C 3.234 214.020,3.578 214.830,4.000 215.600 C 4.422 216.370,4.766 216.820,4.766 216.600 C 4.766 216.380,4.422 215.570,4.000 214.800 C 3.578 214.030,3.234 213.580,3.234 213.800 M5.293 219.600 C 5.293 220.370,5.375 220.685,5.476 220.300 C 5.576 219.915,5.576 219.285,5.476 218.900 C 5.375 218.515,5.293 218.830,5.293 219.600 M5.293 222.400 C 5.293 223.170,5.375 223.485,5.476 223.100 C 5.576 222.715,5.576 222.085,5.476 221.700 C 5.375 221.315,5.293 221.630,5.293 222.400 M3.665 227.017 C 2.995 228.488,3.123 228.802,3.847 227.465 C 4.186 226.840,4.388 226.254,4.296 226.163 C 4.205 226.071,3.921 226.456,3.665 227.017 M1.746 243.400 C 1.747 245.600,1.814 246.449,1.895 245.287 C 1.976 244.124,1.976 242.324,1.893 241.287 C 1.811 240.249,1.745 241.200,1.746 243.400 M2.101 252.600 C 2.105 253.480,2.187 253.793,2.283 253.295 C 2.379 252.798,2.375 252.078,2.275 251.695 C 2.175 251.313,2.096 251.720,2.101 252.600 M396.800 265.000 C 395.828 265.990,395.123 266.800,395.233 266.800 C 395.343 266.800,396.228 265.990,397.200 265.000 C 398.172 264.010,398.877 263.200,398.767 263.200 C 398.657 263.200,397.772 264.010,396.800 265.000 M390.500 269.596 C 389.785 270.032,389.200 270.475,389.200 270.581 C 389.200 270.686,389.830 270.401,390.600 269.947 C 391.370 269.493,392.000 269.049,392.000 268.960 C 392.000 268.705,391.874 268.758,390.500 269.596 M382.393 276.700 L 378.200 281.000 382.500 276.807 C 384.865 274.501,386.800 272.566,386.800 272.507 C 386.800 272.218,386.287 272.706,382.393 276.700 M8.101 280.600 C 8.105 281.480,8.187 281.793,8.283 281.295 C 8.379 280.798,8.375 280.078,8.275 279.695 C 8.175 279.313,8.096 279.720,8.101 280.600 M376.185 283.300 L 374.200 285.400 376.300 283.415 C 377.455 282.323,378.400 281.378,378.400 281.315 C 378.400 281.017,378.029 281.349,376.185 283.300 M7.000 286.400 C 6.846 287.310,6.804 288.138,6.907 288.240 C 7.010 288.343,7.213 287.677,7.360 286.760 C 7.507 285.843,7.548 285.015,7.453 284.920 C 7.358 284.824,7.154 285.490,7.000 286.400 M372.000 287.800 C 371.028 288.790,370.323 289.600,370.433 289.600 C 370.543 289.600,371.428 288.790,372.400 287.800 C 373.372 286.810,374.077 286.000,373.967 286.000 C 373.857 286.000,372.972 286.810,372.000 287.800 M6.501 290.200 C 6.505 291.080,6.587 291.393,6.683 290.895 C 6.779 290.398,6.775 289.678,6.675 289.295 C 6.575 288.913,6.496 289.320,6.501 290.200 M367.385 292.900 L 365.400 295.000 367.500 293.015 C 369.451 291.171,369.783 290.800,369.485 290.800 C 369.422 290.800,368.477 291.745,367.385 292.900 M363.385 297.300 L 361.400 299.400 363.500 297.415 C 365.451 295.571,365.783 295.200,365.485 295.200 C 365.422 295.200,364.477 296.145,363.385 297.300 M358.589 302.500 L 355.800 305.400 358.700 302.611 C 361.394 300.020,361.783 299.600,361.489 299.600 C 361.428 299.600,360.123 300.905,358.589 302.500 M9.940 301.400 C 10.760 303.046,18.642 309.555,21.356 310.828 C 21.967 311.114,21.924 311.026,21.202 310.512 C 16.506 307.164,12.215 303.708,11.002 302.297 C 10.198 301.364,9.721 300.960,9.940 301.400 M23.000 311.807 C 23.440 312.166,24.160 312.635,24.600 312.851 L 25.400 313.244 24.600 312.593 C 24.160 312.234,23.440 311.765,23.000 311.549 L 22.200 311.156 23.000 311.807 M25.800 313.490 C 26.020 313.700,26.920 314.276,27.800 314.770 C 28.680 315.265,29.040 315.370,28.600 315.004 C 27.706 314.261,25.172 312.891,25.800 313.490 M29.600 315.779 C 29.600 315.889,30.140 316.259,30.800 316.600 C 31.460 316.941,32.000 317.131,32.000 317.021 C 32.000 316.911,31.460 316.541,30.800 316.200 C 30.140 315.859,29.600 315.669,29.600 315.779 M320.880 317.280 C 320.616 317.544,320.400 317.938,320.400 318.156 C 320.400 318.375,320.625 318.259,320.900 317.899 C 321.175 317.539,322.030 317.174,322.800 317.086 L 324.200 316.928 322.780 316.864 C 321.999 316.829,321.144 317.016,320.880 317.280 M32.400 317.397 C 32.400 317.668,35.649 319.284,35.830 319.103 C 35.914 319.019,35.176 318.559,34.191 318.081 C 33.206 317.602,32.400 317.294,32.400 317.397 M328.691 318.289 C 329.401 318.377,330.661 318.379,331.491 318.292 C 332.321 318.205,331.740 318.133,330.200 318.131 C 328.660 318.129,327.981 318.200,328.691 318.289 M320.128 321.200 C 320.128 322.630,320.201 323.215,320.289 322.500 C 320.378 321.785,320.378 320.615,320.289 319.900 C 320.201 319.185,320.128 319.770,320.128 321.200 M40.400 321.200 C 41.610 321.839,42.780 322.362,43.000 322.362 C 43.220 322.362,42.410 321.839,41.200 321.200 C 39.990 320.561,38.820 320.038,38.600 320.038 C 38.380 320.038,39.190 320.561,40.400 321.200 M319.693 327.600 C 319.693 328.370,319.775 328.685,319.876 328.300 C 319.976 327.915,319.976 327.285,319.876 326.900 C 319.775 326.515,319.693 326.830,319.693 327.600 M55.200 327.133 C 55.530 327.336,56.250 327.624,56.800 327.771 C 57.495 327.957,57.617 327.925,57.200 327.667 C 56.870 327.464,56.150 327.176,55.600 327.029 C 54.905 326.843,54.783 326.875,55.200 327.133 M319.050 330.850 C 318.913 331.537,318.094 334.012,317.231 336.350 C 316.368 338.687,315.529 340.960,315.367 341.400 C 315.205 341.840,315.196 342.090,315.346 341.957 C 316.191 341.206,320.087 329.600,319.495 329.600 C 319.388 329.600,319.188 330.162,319.050 330.850 M72.743 331.900 C 73.201 332.285,74.712 334.850,76.102 337.600 C 81.212 347.715,91.108 358.922,99.600 364.211 C 101.690 365.513,104.805 367.530,106.522 368.693 C 109.552 370.747,113.250 372.806,113.887 372.794 C 114.059 372.791,112.873 372.065,111.251 371.181 C 109.629 370.297,107.019 368.697,105.451 367.626 C 103.883 366.554,101.070 364.683,99.200 363.466 C 89.890 357.411,80.030 345.800,75.366 335.400 C 74.280 332.978,72.976 331.200,72.286 331.200 C 72.080 331.200,72.286 331.515,72.743 331.900 M314.036 344.309 C 312.481 347.522,308.241 353.667,305.625 356.498 C 299.220 363.432,293.208 368.048,278.405 377.400 C 273.087 380.760,263.982 386.973,257.400 391.734 C 254.760 393.644,250.650 396.210,248.267 397.437 C 245.883 398.663,244.005 399.739,244.093 399.826 C 244.551 400.284,254.189 394.589,259.254 390.868 C 266.555 385.505,278.292 377.663,284.800 373.800 C 293.694 368.521,304.939 358.722,309.699 352.102 C 311.993 348.912,315.425 342.891,315.121 342.588 C 315.028 342.494,314.539 343.269,314.036 344.309 M117.800 374.625 C 119.780 375.591,121.580 376.377,121.800 376.372 C 122.020 376.366,120.509 375.560,118.442 374.581 C 116.375 373.601,114.575 372.815,114.442 372.834 C 114.309 372.852,115.820 373.658,117.800 374.625 M124.400 377.600 C 125.610 378.239,126.780 378.762,127.000 378.762 C 127.220 378.762,126.410 378.239,125.200 377.600 C 123.990 376.961,122.820 376.438,122.600 376.438 C 122.380 376.438,123.190 376.961,124.400 377.600 M131.200 380.600 C 132.190 381.130,133.180 381.564,133.400 381.564 C 133.620 381.564,132.990 381.130,132.000 380.600 C 131.010 380.070,130.020 379.636,129.800 379.636 C 129.580 379.636,130.210 380.070,131.200 380.600 M139.400 384.225 C 141.380 385.191,143.180 385.977,143.400 385.972 C 143.620 385.966,142.109 385.160,140.042 384.181 C 137.975 383.201,136.175 382.415,136.042 382.434 C 135.909 382.452,137.420 383.258,139.400 384.225 M147.200 387.800 C 147.750 388.114,148.380 388.372,148.600 388.372 C 148.820 388.372,148.550 388.114,148.000 387.800 C 147.450 387.486,146.820 387.228,146.600 387.228 C 146.380 387.228,146.650 387.486,147.200 387.800 M153.000 390.219 C 154.540 390.961,155.980 391.564,156.200 391.558 C 156.420 391.553,155.272 390.930,153.648 390.174 C 152.024 389.418,150.584 388.815,150.448 388.834 C 150.312 388.853,151.460 389.476,153.000 390.219 M159.200 393.000 C 160.630 393.749,161.980 394.361,162.200 394.361 C 162.420 394.361,161.430 393.749,160.000 393.000 C 158.570 392.251,157.220 391.639,157.000 391.639 C 156.780 391.639,157.770 392.251,159.200 393.000 M165.200 395.800 C 166.630 396.549,167.980 397.161,168.200 397.161 C 168.420 397.161,167.430 396.549,166.000 395.800 C 164.570 395.051,163.220 394.439,163.000 394.439 C 162.780 394.439,163.770 395.051,165.200 395.800 M169.600 397.800 C 170.150 398.114,170.780 398.372,171.000 398.372 C 171.220 398.372,170.950 398.114,170.400 397.800 C 169.850 397.486,169.220 397.228,169.000 397.228 C 168.780 397.228,169.050 397.486,169.600 397.800 M172.800 399.200 C 173.570 399.622,174.380 399.966,174.600 399.966 C 174.820 399.966,174.370 399.622,173.600 399.200 C 172.830 398.778,172.020 398.434,171.800 398.434 C 171.580 398.434,172.030 398.778,172.800 399.200 "
       stroke="none"
       fill="#f75162"
       fill-rule="evenodd" />
    <path
       id="path2"
       d="M161.200 93.618 C 154.878 94.189,140.012 98.850,133.469 102.313 C 119.152 109.891,110.538 118.000,100.020 133.800 C 92.216 145.522,85.887 159.628,83.508 170.600 C 82.298 176.180,82.206 190.514,83.348 195.400 C 86.056 206.979,92.410 216.357,102.800 224.112 C 104.890 225.671,107.946 228.115,109.592 229.543 C 113.258 232.722,117.949 235.028,124.717 236.976 C 132.250 239.144,132.224 239.123,137.149 246.919 C 151.398 269.475,168.735 278.017,195.000 275.422 C 228.673 272.096,252.367 254.731,262.708 225.800 C 270.527 203.925,267.260 182.249,252.730 159.600 C 247.216 151.004,244.846 146.475,242.787 140.600 C 238.301 127.797,231.184 117.069,224.800 113.489 C 222.930 112.440,219.815 110.330,217.877 108.801 C 211.639 103.876,199.865 97.831,193.800 96.439 C 191.820 95.984,187.837 95.070,184.948 94.406 C 179.355 93.122,170.106 92.815,161.200 93.618 M199.200 125.169 C 215.215 128.165,231.869 137.556,239.532 147.913 C 255.163 169.040,261.706 185.073,261.767 202.400 C 261.892 237.840,235.276 266.405,198.358 270.453 C 172.091 273.332,155.722 266.542,143.047 247.509 C 134.553 234.754,134.388 230.034,142.159 222.042 C 147.147 216.913,147.147 216.476,142.163 211.092 C 122.173 189.495,124.617 161.795,148.592 138.226 C 160.554 126.467,179.711 121.524,199.200 125.169 "
       stroke="none"
       fill="#fc637b"
       fill-rule="evenodd" />
    <path
       id="path3"
       d="M179.725 2.775 C 173.409 5.947,170.267 7.792,167.363 10.030 C 164.916 11.916,163.609 12.024,160.747 10.573 C 159.632 10.008,158.650 9.616,158.565 9.702 C 158.251 10.016,163.135 12.100,164.185 12.100 C 164.781 12.100,165.797 11.709,166.443 11.232 C 167.089 10.754,167.821 10.489,168.070 10.643 C 168.331 10.804,168.414 10.746,168.266 10.507 C 167.917 9.942,169.046 9.057,169.644 9.427 C 169.941 9.611,170.019 9.554,169.849 9.279 C 169.495 8.706,171.413 7.437,172.044 7.827 C 172.342 8.011,172.419 7.954,172.248 7.677 C 171.906 7.125,175.038 5.453,175.676 5.847 C 175.950 6.017,176.012 5.943,175.834 5.656 C 175.641 5.343,177.317 4.325,180.873 2.594 C 183.803 1.168,185.986 0.000,185.725 0.000 C 185.464 0.000,182.764 1.249,179.725 2.775 M254.193 0.933 C 254.565 1.501,254.736 2.181,254.573 2.444 C 254.389 2.741,254.446 2.819,254.721 2.649 C 255.271 2.309,256.545 4.642,256.155 5.274 C 255.998 5.527,256.055 5.613,256.283 5.472 C 256.814 5.144,262.912 14.296,262.551 14.879 C 262.395 15.131,262.457 15.212,262.693 15.066 C 263.258 14.717,264.143 15.846,263.773 16.444 C 263.600 16.723,263.645 16.819,263.880 16.674 C 264.336 16.392,266.100 18.099,265.918 18.645 C 265.853 18.840,265.929 19.000,266.086 19.000 C 266.799 19.000,270.798 23.428,270.586 23.981 C 270.460 24.308,270.493 24.440,270.658 24.275 C 271.061 23.872,278.425 31.235,278.118 31.733 C 277.979 31.957,278.085 31.995,278.363 31.823 C 278.959 31.454,280.483 32.743,280.129 33.315 C 279.981 33.555,280.075 33.601,280.356 33.427 C 280.954 33.057,282.083 33.942,281.734 34.507 C 281.581 34.754,281.671 34.803,281.956 34.627 C 282.554 34.257,283.683 35.142,283.334 35.707 C 283.184 35.950,283.270 36.004,283.541 35.837 C 284.148 35.461,286.490 37.131,286.143 37.692 C 285.984 37.950,286.064 38.008,286.341 37.837 C 286.948 37.461,289.290 39.131,288.943 39.692 C 288.782 39.952,288.864 40.007,289.149 39.832 C 289.751 39.460,296.876 44.754,296.529 45.315 C 296.385 45.548,296.473 45.602,296.735 45.440 C 297.348 45.061,300.894 47.524,300.546 48.087 C 300.384 48.349,300.462 48.409,300.741 48.237 C 301.348 47.861,303.690 49.531,303.343 50.092 C 303.181 50.354,303.265 50.407,303.556 50.227 C 304.154 49.857,305.283 50.742,304.934 51.307 C 304.781 51.554,304.871 51.603,305.156 51.427 C 305.754 51.057,306.883 51.942,306.534 52.507 C 306.384 52.750,306.470 52.804,306.741 52.637 C 307.305 52.288,309.702 53.911,309.384 54.426 C 309.260 54.627,309.404 54.697,309.704 54.581 C 310.005 54.466,310.582 54.738,310.987 55.186 C 311.392 55.634,311.571 56.000,311.384 56.000 C 311.196 56.000,311.647 56.623,312.385 57.384 C 313.123 58.146,313.848 58.694,313.995 58.603 C 314.365 58.374,318.473 62.581,318.322 63.035 C 318.255 63.236,318.352 63.427,318.537 63.461 C 319.197 63.580,321.199 65.758,321.100 66.249 C 321.045 66.523,321.116 66.714,321.258 66.674 C 321.786 66.523,323.220 68.170,323.019 68.696 C 322.903 68.996,322.967 69.144,323.159 69.025 C 323.648 68.723,324.527 69.872,324.205 70.392 C 324.059 70.627,324.179 70.770,324.470 70.710 C 324.762 70.649,324.976 70.908,324.947 71.284 C 324.918 71.661,325.098 71.931,325.347 71.884 C 325.596 71.838,325.775 72.113,325.745 72.496 C 325.715 72.878,325.841 73.098,326.025 72.984 C 326.495 72.694,327.297 74.319,326.957 74.870 C 326.789 75.142,326.855 75.213,327.121 75.049 C 327.671 74.709,328.945 77.042,328.555 77.674 C 328.394 77.934,328.455 78.013,328.700 77.862 C 328.939 77.714,329.601 78.431,330.215 79.500 C 331.608 81.927,333.083 83.521,334.600 84.241 C 335.260 84.555,335.440 84.584,335.000 84.306 C 333.178 83.154,331.265 80.713,329.017 76.670 C 322.478 64.908,314.803 57.082,298.547 45.600 C 281.255 33.387,277.255 30.108,270.211 22.374 C 264.376 15.968,259.879 9.914,256.057 3.320 C 255.139 1.736,254.192 0.319,253.952 0.171 C 253.713 0.023,253.821 0.366,254.193 0.933 M112.100 0.697 C 113.585 0.774,116.015 0.774,117.500 0.697 C 118.985 0.620,117.770 0.557,114.800 0.557 C 111.830 0.557,110.615 0.620,112.100 0.697 M122.105 1.087 C 122.714 1.179,123.614 1.177,124.105 1.082 C 124.597 0.987,124.100 0.911,123.000 0.914 C 121.900 0.917,121.497 0.995,122.105 1.087 M103.800 1.789 C 101.652 2.497,102.497 2.524,105.000 1.828 C 106.100 1.522,106.640 1.269,106.200 1.267 C 105.760 1.264,104.680 1.499,103.800 1.789 M125.700 1.476 C 126.085 1.576,126.715 1.576,127.100 1.476 C 127.485 1.375,127.170 1.293,126.400 1.293 C 125.630 1.293,125.315 1.375,125.700 1.476 M99.400 3.343 C 97.392 4.282,94.486 7.054,93.633 8.842 C 93.183 9.788,93.186 9.788,93.888 8.804 C 95.661 6.321,97.477 4.712,99.746 3.611 C 101.096 2.956,102.020 2.418,101.800 2.414 C 101.580 2.411,100.500 2.829,99.400 3.343 M136.100 3.076 C 136.485 3.176,137.115 3.176,137.500 3.076 C 137.885 2.975,137.570 2.893,136.800 2.893 C 136.030 2.893,135.715 2.975,136.100 3.076 M143.800 4.800 C 144.900 5.206,146.070 5.538,146.400 5.538 C 146.730 5.538,146.100 5.206,145.000 4.800 C 143.900 4.394,142.730 4.062,142.400 4.062 C 142.070 4.062,142.700 4.394,143.800 4.800 M149.600 6.400 C 150.968 6.838,152.019 6.838,151.000 6.400 C 150.560 6.211,149.840 6.062,149.400 6.068 C 148.757 6.077,148.796 6.143,149.600 6.400 M155.600 8.600 C 156.590 9.130,157.580 9.564,157.800 9.564 C 158.020 9.564,157.390 9.130,156.400 8.600 C 155.410 8.070,154.420 7.636,154.200 7.636 C 153.980 7.636,154.610 8.070,155.600 8.600 M91.535 12.700 C 90.863 14.185,89.711 16.705,88.976 18.300 C 88.241 19.895,87.729 21.200,87.839 21.200 C 88.027 21.200,89.000 19.180,91.935 12.700 C 92.608 11.215,93.068 10.000,92.958 10.000 C 92.848 10.000,92.208 11.215,91.535 12.700 M83.011 28.900 C 78.362 36.715,78.127 37.129,78.543 36.760 C 79.195 36.182,87.799 21.600,87.488 21.600 C 87.415 21.600,85.400 24.885,83.011 28.900 M74.862 42.900 C 71.731 48.440,69.192 53.818,69.207 54.878 C 69.211 55.165,69.841 53.879,70.607 52.020 C 71.372 50.161,73.376 46.201,75.059 43.220 C 76.743 40.239,78.194 37.665,78.284 37.500 C 78.374 37.335,78.365 37.200,78.265 37.200 C 78.165 37.200,76.633 39.765,74.862 42.900 M313.792 57.923 C 313.944 58.320,313.545 58.113,312.826 57.424 C 312.152 56.779,311.600 56.190,311.600 56.116 C 311.600 55.724,313.572 57.350,313.792 57.923 M68.493 58.800 C 68.493 59.570,68.575 59.885,68.676 59.500 C 68.776 59.115,68.776 58.485,68.676 58.100 C 68.575 57.715,68.493 58.030,68.493 58.800 M68.109 62.800 C 68.109 63.790,68.187 64.195,68.282 63.700 C 68.378 63.205,68.378 62.395,68.282 61.900 C 68.187 61.405,68.109 61.810,68.109 62.800 M67.600 65.370 C 67.600 66.204,66.335 67.098,56.441 73.252 C 47.014 79.117,45.959 79.886,31.600 91.374 C 12.086 106.986,5.688 114.334,6.036 120.736 C 6.056 121.101,6.241 120.770,6.448 120.000 C 7.136 117.433,8.065 115.193,8.364 115.378 C 8.526 115.478,8.646 115.164,8.630 114.680 C 8.612 114.151,8.811 113.844,9.130 113.910 C 9.421 113.970,9.548 113.839,9.411 113.618 C 9.093 113.104,9.931 111.510,10.375 111.784 C 10.559 111.898,10.685 111.678,10.655 111.296 C 10.625 110.911,10.837 110.649,11.130 110.710 C 11.435 110.773,11.541 110.628,11.380 110.368 C 11.218 110.105,12.412 108.599,14.241 106.758 C 17.052 103.931,18.553 102.781,17.762 104.062 C 17.584 104.350,17.652 104.415,17.945 104.234 C 18.202 104.075,18.328 103.806,18.223 103.637 C 17.935 103.171,20.995 100.341,21.638 100.479 C 21.947 100.546,22.156 100.378,22.102 100.107 C 21.970 99.439,27.667 94.759,28.321 94.999 C 28.607 95.105,28.746 95.037,28.630 94.849 C 28.306 94.324,29.882 93.080,30.437 93.423 C 30.725 93.601,30.820 93.557,30.671 93.315 C 30.317 92.743,31.841 91.454,32.437 91.823 C 32.725 92.001,32.820 91.957,32.671 91.715 C 32.389 91.259,33.703 89.901,34.250 90.083 C 34.442 90.147,34.600 90.084,34.600 89.942 C 34.600 89.332,36.197 87.990,36.696 88.181 C 36.996 88.297,37.146 88.237,37.030 88.049 C 36.706 87.524,38.282 86.280,38.837 86.623 C 39.133 86.806,39.220 86.757,39.060 86.497 C 38.708 85.927,41.851 83.461,42.455 83.834 C 42.726 84.001,42.817 83.951,42.671 83.715 C 42.317 83.143,43.841 81.854,44.437 82.223 C 44.728 82.403,44.820 82.357,44.666 82.107 C 44.317 81.542,45.446 80.657,46.044 81.027 C 46.329 81.203,46.419 81.154,46.266 80.907 C 45.934 80.369,47.032 79.449,47.592 79.795 C 47.827 79.941,47.970 79.821,47.910 79.530 C 47.849 79.238,48.108 79.024,48.484 79.053 C 48.861 79.082,49.131 78.902,49.084 78.653 C 49.038 78.404,49.313 78.225,49.696 78.255 C 50.078 78.285,50.298 78.159,50.184 77.975 C 49.910 77.531,51.504 76.693,52.018 77.011 C 52.239 77.148,52.370 77.021,52.310 76.730 C 52.249 76.437,52.511 76.225,52.896 76.255 C 53.278 76.285,53.498 76.159,53.384 75.975 C 53.110 75.531,54.704 74.693,55.218 75.011 C 55.439 75.148,55.570 75.021,55.510 74.730 C 55.449 74.438,55.708 74.224,56.084 74.253 C 56.461 74.282,56.731 74.102,56.684 73.853 C 56.638 73.604,56.913 73.425,57.296 73.455 C 57.678 73.485,57.898 73.359,57.784 73.175 C 57.494 72.705,59.119 71.903,59.670 72.243 C 59.941 72.411,60.014 72.346,59.851 72.082 C 59.513 71.535,61.048 70.659,61.670 71.043 C 61.935 71.207,62.014 71.146,61.859 70.896 C 61.535 70.371,64.221 68.642,64.803 69.002 C 65.032 69.143,65.170 69.102,65.110 68.909 C 64.969 68.458,67.810 65.943,68.115 66.249 C 68.242 66.375,68.247 66.101,68.126 65.640 C 67.874 64.675,67.600 64.535,67.600 65.370 M338.800 86.404 C 339.130 86.630,343.137 89.047,347.705 91.774 C 365.345 102.305,375.556 111.840,384.842 126.454 C 388.684 132.501,388.938 132.865,388.152 131.216 C 381.946 118.191,366.747 102.879,349.881 92.662 C 342.857 88.407,336.447 84.787,338.800 86.404 M164.380 90.417 C 151.979 91.002,137.012 96.013,125.393 103.471 C 122.977 105.022,120.190 106.697,119.200 107.194 C 105.958 113.840,85.870 143.986,80.253 165.643 C 73.834 190.385,81.085 213.599,99.384 226.895 C 106.571 232.117,106.539 232.047,106.855 243.200 C 108.046 285.312,139.080 318.387,180.476 321.660 C 187.579 322.222,190.157 321.888,196.179 319.626 C 198.469 318.766,202.830 317.496,205.871 316.803 C 255.414 305.516,294.396 265.948,301.043 220.200 C 305.205 191.556,294.367 153.327,276.322 132.994 C 275.348 131.897,273.493 129.650,272.199 128.000 C 262.990 116.255,251.449 110.709,236.000 110.606 C 225.711 110.537,225.273 110.414,219.298 105.912 C 210.581 99.346,201.074 94.924,190.362 92.451 C 178.897 89.805,178.317 89.760,164.380 90.417 M184.948 94.406 C 187.837 95.070,191.820 95.984,193.800 96.439 C 199.865 97.831,211.639 103.876,217.877 108.801 C 219.815 110.330,222.930 112.440,224.800 113.489 C 231.184 117.069,238.301 127.797,242.787 140.600 C 244.846 146.475,247.216 151.004,252.730 159.600 C 283.615 207.742,260.590 262.764,204.800 274.139 C 174.317 280.354,152.802 271.697,137.149 246.919 C 132.224 239.123,132.250 239.144,124.717 236.976 C 117.949 235.028,113.258 232.722,109.592 229.543 C 107.946 228.115,104.890 225.671,102.800 224.112 C 88.374 213.346,82.578 201.653,82.620 183.400 C 82.658 167.085,88.001 151.853,100.020 133.800 C 114.697 111.753,129.414 101.201,154.430 94.789 C 162.237 92.788,177.091 92.601,184.948 94.406 M4.491 125.909 C 4.018 127.389,3.537 129.410,3.423 130.400 C 3.228 132.090,3.247 132.065,3.737 130.000 C 4.024 128.790,4.579 126.843,4.970 125.674 C 5.361 124.505,5.607 123.474,5.517 123.383 C 5.426 123.292,4.964 124.429,4.491 125.909 M2.901 133.800 C 2.905 134.680,2.987 134.993,3.083 134.495 C 3.179 133.998,3.175 133.278,3.075 132.895 C 2.975 132.513,2.896 132.920,2.901 133.800 M389.246 133.800 C 389.253 134.020,389.606 134.920,390.029 135.800 C 390.452 136.680,390.686 136.950,390.549 136.400 C 390.267 135.267,389.225 133.188,389.246 133.800 M2.395 137.100 C 2.392 137.705,1.852 140.349,1.195 142.976 C 0.538 145.602,0.021 148.212,0.046 148.776 C 0.082 149.564,0.131 149.616,0.258 149.000 C 1.315 143.879,2.114 140.823,2.358 140.974 C 2.521 141.075,2.574 140.602,2.474 139.922 C 2.374 139.242,2.455 138.787,2.654 138.910 C 2.854 139.033,2.948 138.435,2.865 137.566 C 2.693 135.764,2.402 135.476,2.395 137.100 M391.350 139.200 C 391.701 140.499,392.909 143.224,393.065 143.068 C 393.156 142.978,392.770 141.935,392.209 140.752 C 391.647 139.568,391.261 138.870,391.350 139.200 M394.942 153.000 C 394.941 154.980,395.008 155.840,395.092 154.912 C 395.176 153.984,395.177 152.364,395.095 151.312 C 395.012 150.260,394.943 151.020,394.942 153.000 M393.115 163.810 C 392.992 164.245,392.769 164.960,392.620 165.400 C 392.471 165.840,392.642 165.694,393.000 165.076 C 393.358 164.458,393.581 163.742,393.495 163.486 C 393.410 163.230,393.239 163.376,393.115 163.810 M391.472 167.819 C 390.532 169.789,390.664 170.124,391.647 168.262 C 392.093 167.416,392.387 166.654,392.301 166.567 C 392.214 166.481,391.841 167.044,391.472 167.819 M389.072 173.419 C 388.132 175.389,388.264 175.724,389.247 173.862 C 389.693 173.016,389.987 172.254,389.901 172.167 C 389.814 172.081,389.441 172.644,389.072 173.419 M386.865 178.617 C 386.195 180.088,386.323 180.402,387.047 179.065 C 387.386 178.440,387.588 177.854,387.496 177.763 C 387.405 177.671,387.121 178.056,386.865 178.617 M384.644 183.644 C 384.057 185.000,383.641 186.175,383.722 186.255 C 383.802 186.336,384.348 185.291,384.933 183.933 C 385.519 182.576,385.934 181.401,385.856 181.322 C 385.777 181.244,385.232 182.289,384.644 183.644 M382.475 188.619 C 381.270 191.100,381.405 191.447,382.646 189.061 C 383.201 187.994,383.587 187.053,383.503 186.970 C 383.419 186.886,382.957 187.628,382.475 188.619 M380.046 194.439 C 379.284 196.627,380.453 200.800,381.829 200.800 C 381.939 200.800,381.572 200.128,381.014 199.307 C 379.929 197.710,379.751 196.308,380.411 194.571 C 380.637 193.976,380.748 193.415,380.657 193.324 C 380.567 193.233,380.292 193.735,380.046 194.439 M0.093 198.400 C 0.093 199.170,0.175 199.485,0.276 199.100 C 0.376 198.715,0.376 198.085,0.276 197.700 C 0.175 197.315,0.093 197.630,0.093 198.400 M0.424 200.518 C 0.384 201.718,3.213 211.186,4.667 214.717 C 5.418 216.542,6.199 219.062,6.401 220.317 L 6.768 222.600 6.622 220.400 C 6.531 219.024,5.849 216.646,4.804 214.054 C 3.884 211.774,3.220 209.568,3.328 209.153 C 3.437 208.738,3.383 208.487,3.209 208.594 C 3.035 208.702,2.691 208.027,2.445 207.095 C 1.115 202.057,0.446 199.877,0.424 200.518 M382.985 202.700 C 383.602 203.635,384.183 204.400,384.276 204.400 C 384.564 204.400,383.033 201.966,382.432 201.469 C 382.120 201.211,382.368 201.765,382.985 202.700 M387.800 210.800 C 388.141 211.460,388.511 212.000,388.621 212.000 C 388.731 212.000,388.541 211.460,388.200 210.800 C 387.859 210.140,387.489 209.600,387.379 209.600 C 387.269 209.600,387.459 210.140,387.800 210.800 M4.252 228.408 C 3.673 229.969,3.202 231.550,3.205 231.923 C 3.208 232.295,3.741 231.077,4.388 229.216 C 5.823 225.093,5.716 224.458,4.252 228.408 M2.893 234.000 C 2.893 234.770,2.975 235.085,3.076 234.700 C 3.176 234.315,3.176 233.685,3.076 233.300 C 2.975 232.915,2.893 233.230,2.893 234.000 M2.559 242.800 C 2.559 245.990,2.621 247.295,2.697 245.700 C 2.773 244.105,2.773 241.495,2.697 239.900 C 2.621 238.305,2.559 239.610,2.559 242.800 M2.901 251.800 C 2.905 252.680,2.987 252.993,3.083 252.495 C 3.179 251.998,3.175 251.278,3.075 250.895 C 2.975 250.513,2.896 250.920,2.901 251.800 M4.061 258.400 C 4.061 258.730,4.303 259.630,4.600 260.400 C 4.897 261.170,5.139 261.530,5.139 261.200 C 5.139 260.870,4.897 259.970,4.600 259.200 C 4.303 258.430,4.061 258.070,4.061 258.400 M396.615 263.474 C 395.524 264.701,393.679 266.336,392.515 267.109 C 390.181 268.659,389.683 269.254,391.668 268.123 C 393.194 267.252,397.884 262.964,398.435 261.935 C 399.024 260.834,398.785 261.036,396.615 263.474 M386.709 271.164 C 385.092 272.465,382.517 274.857,380.985 276.481 C 376.541 281.192,371.497 286.800,371.703 286.800 C 371.808 286.800,374.495 283.965,377.675 280.500 C 380.855 277.035,384.794 273.130,386.428 271.822 C 390.237 268.774,390.206 268.800,389.904 268.800 C 389.763 268.800,388.325 269.864,386.709 271.164 M6.468 270.200 C 6.462 270.640,6.611 271.360,6.800 271.800 C 7.238 272.819,7.238 271.768,6.800 270.400 C 6.543 269.596,6.477 269.557,6.468 270.200 M8.901 280.600 C 8.905 281.480,8.987 281.793,9.083 281.295 C 9.179 280.798,9.175 280.078,9.075 279.695 C 8.975 279.313,8.896 279.720,8.901 280.600 M8.493 284.000 C 8.493 284.770,8.575 285.085,8.676 284.700 C 8.776 284.315,8.776 283.685,8.676 283.300 C 8.575 282.915,8.493 283.230,8.493 284.000 M7.859 287.088 C 7.721 287.919,7.632 289.590,7.660 290.800 C 7.701 292.563,7.775 292.287,8.029 289.407 C 8.363 285.633,8.282 284.528,7.859 287.088 M368.987 289.700 L 366.600 292.200 369.100 289.813 C 370.475 288.499,371.600 287.374,371.600 287.313 C 371.600 287.017,371.205 287.378,368.987 289.700 M359.800 299.576 C 356.135 303.522,352.161 307.504,350.968 308.424 C 348.596 310.255,348.027 310.992,350.100 309.550 C 352.157 308.119,367.351 292.400,366.677 292.400 C 366.560 292.400,363.466 295.629,359.800 299.576 M8.038 293.600 C 7.995 294.369,8.810 297.324,9.010 297.124 C 9.093 297.040,8.916 296.079,8.616 294.986 C 8.317 293.894,8.056 293.270,8.038 293.600 M9.204 297.860 C 9.179 300.860,20.493 310.108,30.400 315.185 C 32.460 316.241,30.458 314.849,26.400 312.405 C 17.414 306.992,12.365 302.904,10.373 299.432 C 9.732 298.314,9.206 297.607,9.204 297.860 M342.400 314.200 C 341.410 314.730,340.742 315.172,340.916 315.182 C 341.341 315.206,344.400 313.634,344.400 313.392 C 344.400 313.127,344.417 313.120,342.400 314.200 M31.600 315.798 C 31.600 316.065,37.249 318.885,37.427 318.706 C 37.507 318.627,36.228 317.897,34.586 317.084 C 32.944 316.271,31.600 315.693,31.600 315.798 M320.276 316.581 C 319.957 316.900,319.596 317.063,319.475 316.941 C 319.353 316.820,319.360 317.127,319.490 317.623 C 319.620 318.121,319.563 318.424,319.363 318.299 C 319.152 318.168,319.075 319.356,319.180 321.137 L 319.359 324.200 319.592 320.947 C 319.868 317.076,320.264 316.489,322.732 316.293 L 324.600 316.144 322.729 316.072 C 321.542 316.026,320.644 316.213,320.276 316.581 M39.200 319.600 C 39.970 320.022,40.780 320.366,41.000 320.366 C 41.220 320.366,40.770 320.022,40.000 319.600 C 39.230 319.178,38.420 318.834,38.200 318.834 C 37.980 318.834,38.430 319.178,39.200 319.600 M43.200 321.400 C 43.750 321.714,44.380 321.972,44.600 321.972 C 44.820 321.972,44.550 321.714,44.000 321.400 C 43.450 321.086,42.820 320.828,42.600 320.828 C 42.380 320.828,42.650 321.086,43.200 321.400 M48.400 323.567 C 49.170 323.969,50.250 324.414,50.800 324.555 C 51.350 324.697,50.832 324.360,49.649 323.806 C 47.168 322.646,46.330 322.485,48.400 323.567 M52.035 324.938 C 52.362 325.307,58.099 327.234,58.293 327.040 C 58.380 326.953,57.225 326.477,55.726 325.983 C 54.226 325.488,52.730 324.991,52.400 324.878 C 52.070 324.765,51.906 324.792,52.035 324.938 M318.901 326.600 C 318.905 327.480,318.987 327.793,319.083 327.295 C 319.179 326.798,319.175 326.078,319.075 325.695 C 318.975 325.313,318.896 325.720,318.901 326.600 M59.400 327.600 C 59.840 327.789,60.560 327.938,61.000 327.932 C 61.643 327.923,61.604 327.857,60.800 327.600 C 59.432 327.162,58.381 327.162,59.400 327.600 M318.400 329.121 C 318.400 329.518,317.771 331.710,317.003 333.991 C 315.284 339.095,315.406 339.755,317.161 334.849 C 318.457 331.226,319.110 328.400,318.652 328.400 C 318.514 328.400,318.400 328.725,318.400 329.121 M72.841 330.901 C 73.635 331.427,74.598 332.633,75.156 333.801 C 81.542 347.151,89.796 356.501,102.750 365.060 C 111.130 370.596,115.757 372.947,132.400 380.125 C 134.710 381.121,138.850 382.955,141.600 384.201 C 144.350 385.447,149.030 387.504,152.000 388.772 C 154.970 390.040,161.775 393.105,167.122 395.583 C 172.469 398.062,176.937 399.996,177.052 399.881 C 177.167 399.767,176.884 399.554,176.424 399.408 C 175.962 399.261,175.708 398.949,175.856 398.709 C 176.023 398.439,175.935 398.393,175.621 398.587 C 174.978 398.984,171.143 397.216,171.476 396.677 C 171.624 396.437,171.519 396.403,171.213 396.592 C 170.567 396.991,165.143 394.415,165.480 393.870 C 165.624 393.638,165.515 393.605,165.216 393.790 C 164.621 394.158,159.930 392.037,160.238 391.539 C 160.350 391.358,160.133 391.328,159.755 391.473 C 159.253 391.665,159.156 391.594,159.396 391.206 C 159.620 390.844,159.570 390.772,159.238 390.977 C 158.593 391.375,156.338 390.424,156.667 389.892 C 156.822 389.641,156.727 389.598,156.427 389.783 C 155.786 390.179,152.742 388.817,153.073 388.282 C 153.217 388.050,153.125 387.999,152.858 388.164 C 152.251 388.539,150.721 388.051,151.015 387.576 C 151.140 387.374,150.981 387.309,150.663 387.431 C 149.875 387.734,143.550 384.805,143.870 384.286 C 144.022 384.041,143.925 383.999,143.627 384.183 C 142.986 384.579,139.942 383.217,140.273 382.682 C 140.423 382.439,140.322 382.401,140.021 382.587 C 139.378 382.984,135.543 381.216,135.876 380.677 C 136.020 380.444,135.921 380.402,135.638 380.577 C 134.993 380.975,132.738 380.024,133.067 379.492 C 133.222 379.241,133.127 379.198,132.827 379.383 C 132.186 379.779,129.142 378.417,129.473 377.882 C 129.620 377.644,129.524 377.600,129.238 377.777 C 128.593 378.175,126.338 377.224,126.667 376.692 C 126.821 376.442,126.728 376.398,126.432 376.580 C 125.868 376.929,117.523 373.247,117.814 372.778 C 117.917 372.611,117.686 372.548,117.301 372.639 C 116.443 372.839,108.567 368.705,108.684 368.116 C 108.731 367.884,108.461 367.718,108.084 367.747 C 107.708 367.776,107.438 367.596,107.484 367.347 C 107.531 367.098,107.261 366.918,106.884 366.947 C 106.508 366.976,106.238 366.796,106.284 366.547 C 106.331 366.298,106.061 366.118,105.684 366.147 C 105.308 366.176,105.038 365.996,105.084 365.747 C 105.131 365.498,104.861 365.318,104.484 365.347 C 104.108 365.376,103.838 365.196,103.884 364.947 C 103.931 364.698,103.661 364.518,103.284 364.547 C 102.908 364.576,102.649 364.362,102.710 364.070 C 102.770 363.779,102.639 363.652,102.418 363.789 C 101.904 364.107,100.310 363.269,100.584 362.825 C 100.698 362.641,100.478 362.515,100.096 362.545 C 99.713 362.575,99.438 362.396,99.484 362.147 C 99.531 361.898,99.261 361.718,98.884 361.747 C 98.508 361.776,98.249 361.562,98.310 361.270 C 98.371 360.976,98.226 360.860,97.985 361.009 C 97.468 361.329,95.925 360.046,96.230 359.551 C 96.346 359.363,96.199 359.302,95.903 359.416 C 94.496 359.956,80.249 344.014,81.022 342.764 C 81.210 342.461,81.157 342.380,80.882 342.549 C 80.335 342.887,79.459 341.352,79.843 340.730 C 80.012 340.457,79.945 340.387,79.677 340.552 C 79.125 340.894,77.453 337.762,77.847 337.124 C 78.028 336.831,77.941 336.790,77.594 337.004 C 77.206 337.244,77.135 337.147,77.327 336.645 C 77.505 336.182,77.440 336.052,77.127 336.245 C 76.815 336.438,76.750 336.307,76.927 335.845 C 77.105 335.382,77.040 335.252,76.727 335.445 C 76.415 335.638,76.350 335.507,76.527 335.045 C 76.672 334.667,76.643 334.450,76.461 334.562 C 76.035 334.825,74.712 332.066,75.023 331.563 C 75.153 331.352,75.111 331.222,74.930 331.272 C 74.748 331.323,74.024 331.057,73.320 330.682 C 71.504 329.715,71.236 329.837,72.841 330.901 M313.512 342.873 C 312.243 345.553,311.468 346.766,311.150 346.569 C 310.843 346.380,310.783 346.448,310.978 346.764 C 311.382 347.418,308.519 351.721,307.924 351.353 C 307.643 351.180,307.589 351.258,307.777 351.563 C 308.120 352.118,306.876 353.694,306.351 353.370 C 306.163 353.254,306.100 353.394,306.210 353.682 C 306.498 354.432,299.425 361.386,298.780 360.988 C 298.483 360.804,298.377 360.839,298.522 361.073 C 298.887 361.665,295.776 364.556,295.174 364.184 C 294.879 364.001,294.778 364.040,294.926 364.280 C 295.262 364.824,293.375 366.555,292.820 366.212 C 292.576 366.062,292.429 366.168,292.490 366.450 C 292.631 367.103,284.789 372.481,284.087 372.212 C 283.796 372.100,283.658 372.170,283.779 372.367 C 284.068 372.833,280.512 374.917,279.984 374.590 C 279.762 374.453,279.630 374.579,279.690 374.870 C 279.751 375.162,279.492 375.376,279.116 375.347 C 278.739 375.318,278.469 375.498,278.516 375.747 C 278.562 375.996,278.292 376.176,277.916 376.147 C 277.539 376.118,277.269 376.298,277.316 376.547 C 277.362 376.796,277.087 376.975,276.704 376.945 C 276.322 376.915,276.098 377.035,276.207 377.211 C 276.485 377.662,273.706 379.312,273.197 378.998 C 272.968 378.857,272.830 378.979,272.890 379.270 C 272.951 379.563,272.689 379.775,272.304 379.745 C 271.922 379.715,271.693 379.827,271.796 379.994 C 272.063 380.425,267.652 383.279,267.175 382.984 C 266.958 382.850,266.830 382.979,266.890 383.270 C 266.951 383.562,266.692 383.776,266.316 383.747 C 265.939 383.718,265.669 383.898,265.716 384.147 C 265.762 384.396,265.487 384.575,265.104 384.545 C 264.722 384.515,264.499 384.636,264.609 384.815 C 264.910 385.301,262.477 386.895,261.941 386.563 C 261.670 386.396,261.584 386.450,261.734 386.693 C 262.083 387.258,260.954 388.143,260.356 387.773 C 260.067 387.594,259.981 387.646,260.140 387.903 C 260.490 388.469,256.555 391.343,255.946 390.967 C 255.664 390.792,255.583 390.849,255.743 391.108 C 256.090 391.669,253.748 393.339,253.141 392.963 C 252.861 392.790,252.784 392.851,252.948 393.116 C 253.280 393.653,249.805 395.774,249.202 395.401 C 248.970 395.258,248.830 395.379,248.890 395.670 C 248.956 395.989,248.649 396.188,248.120 396.170 C 247.633 396.154,247.350 396.318,247.486 396.538 C 247.632 396.776,247.455 396.830,247.045 396.673 C 246.582 396.495,246.452 396.560,246.645 396.873 C 246.838 397.185,246.707 397.250,246.245 397.073 C 245.851 396.921,245.659 396.972,245.794 397.191 C 245.924 397.400,244.988 398.110,243.715 398.767 C 242.442 399.424,241.556 399.970,241.747 399.981 C 242.716 400.035,252.344 394.603,256.196 391.829 C 265.114 385.408,271.701 380.907,277.606 377.200 C 294.940 366.319,302.202 360.337,308.859 351.454 C 311.028 348.560,315.970 339.426,315.572 339.047 C 315.477 338.957,314.550 340.679,313.512 342.873 "
       stroke="none"
       fill="#fc7383"
       fill-rule="evenodd" />
    <path
       id="path4"
       d="M163.400 88.422 C 151.269 88.984,136.500 93.929,124.600 101.412 C 118.989 104.941,115.417 106.195,107.497 107.416 C 100.482 108.498,96.823 109.587,91.301 112.237 C 87.546 114.040,86.756 114.689,81.543 120.258 C 80.082 121.820,76.482 124.946,73.543 127.207 C 58.208 139.002,47.016 154.650,40.809 172.974 C 38.016 181.220,37.422 186.167,37.728 198.600 C 38.202 217.844,41.970 226.141,60.436 248.600 C 65.528 254.793,67.596 257.896,73.496 268.200 C 76.771 273.920,80.626 280.580,82.061 283.000 C 83.497 285.420,85.788 289.593,87.153 292.272 C 90.290 298.429,91.932 300.661,99.647 309.247 C 103.083 313.071,106.384 316.785,106.983 317.501 C 110.010 321.116,121.048 328.973,127.839 332.349 C 148.729 342.732,167.784 341.363,188.200 328.011 C 197.357 322.023,198.393 321.565,209.000 318.828 C 222.762 315.277,227.006 313.722,238.011 308.195 C 267.812 293.228,294.355 261.198,301.555 231.515 C 309.885 197.172,300.483 157.196,277.826 130.634 C 276.341 128.893,274.133 126.052,272.920 124.321 C 265.299 113.445,249.862 106.106,236.496 107.005 C 226.556 107.673,225.607 107.594,223.164 105.893 C 221.974 105.064,219.740 103.510,218.200 102.440 C 209.805 96.605,201.289 92.803,191.309 90.435 C 180.412 87.849,178.589 87.717,163.400 88.422 M180.800 90.425 C 196.308 92.926,208.647 97.890,219.298 105.912 C 225.273 110.414,225.711 110.537,236.000 110.606 C 251.449 110.709,262.990 116.255,272.199 128.000 C 273.493 129.650,275.348 131.897,276.322 132.994 C 294.367 153.327,305.205 191.556,301.043 220.200 C 294.396 265.948,255.414 305.516,205.871 316.803 C 202.830 317.496,198.469 318.766,196.179 319.626 C 190.157 321.888,187.579 322.222,180.476 321.660 C 139.080 318.387,108.046 285.312,106.855 243.200 C 106.539 232.047,106.571 232.117,99.384 226.895 C 71.572 206.688,70.859 169.072,97.545 129.832 C 105.888 117.564,112.675 110.469,119.200 107.194 C 120.190 106.697,122.977 105.022,125.393 103.471 C 133.182 98.471,146.443 93.116,155.780 91.199 C 160.277 90.275,176.718 89.767,180.800 90.425 M395.724 153.000 C 395.726 154.320,395.801 154.812,395.890 154.093 C 395.979 153.374,395.977 152.294,395.886 151.693 C 395.795 151.092,395.722 151.680,395.724 153.000 M382.378 276.300 L 381.000 277.800 382.500 276.422 C 383.896 275.138,384.184 274.800,383.878 274.800 C 383.812 274.800,383.137 275.475,382.378 276.300 M354.378 306.700 L 353.000 308.200 354.500 306.822 C 355.896 305.538,356.184 305.200,355.878 305.200 C 355.812 305.200,355.137 305.875,354.378 306.700 M91.000 356.800 C 92.083 357.900,93.060 358.800,93.170 358.800 C 93.280 358.800,92.483 357.900,91.400 356.800 C 90.317 355.700,89.340 354.800,89.230 354.800 C 89.120 354.800,89.917 355.700,91.000 356.800 "
       stroke="none"
       fill="#fc7b93"
       fill-rule="evenodd" />
    <path
       id="path5"
       d="M151.200 42.017 C 141.330 42.940,139.585 43.239,133.600 45.030 C 123.655 48.006,116.201 52.150,109.200 58.595 C 107.330 60.317,104.058 63.225,101.930 65.059 C 97.034 69.276,96.008 70.545,91.770 77.624 C 85.509 88.084,82.948 95.150,80.853 107.747 C 79.477 116.021,78.770 116.988,67.825 125.578 C 46.587 142.247,32.376 170.112,32.407 195.028 C 32.435 217.322,37.598 229.400,55.961 250.119 C 61.470 256.336,63.842 259.842,71.223 272.682 C 74.840 278.974,78.734 285.734,79.876 287.704 C 81.017 289.673,82.787 293.192,83.807 295.522 C 86.384 301.406,87.415 302.823,96.700 313.245 C 119.871 339.252,142.966 348.381,169.460 342.004 C 172.132 341.361,176.059 340.555,178.185 340.213 C 183.771 339.314,188.888 336.405,195.400 330.427 C 200.048 326.160,200.334 326.028,211.093 323.180 C 224.111 319.735,229.277 317.795,240.574 312.111 C 266.127 299.255,289.505 274.184,300.918 247.400 C 304.589 238.783,305.184 236.939,307.048 228.400 C 311.109 209.791,310.380 193.015,304.603 172.170 C 300.329 156.751,289.692 136.683,280.992 127.625 C 276.031 122.460,276.004 122.379,276.111 113.337 L 276.200 105.800 274.709 101.400 C 269.790 86.881,261.138 79.018,242.200 71.856 C 235.088 69.166,233.186 68.558,221.400 65.206 C 208.352 61.495,198.535 57.867,189.200 53.306 C 167.264 42.590,161.950 41.011,151.200 42.017 M312.200 58.000 C 313.059 58.880,313.852 59.600,313.962 59.600 C 314.072 59.600,313.459 58.880,312.600 58.000 C 311.741 57.120,310.948 56.400,310.838 56.400 C 310.728 56.400,311.341 57.120,312.200 58.000 M181.709 88.408 C 195.067 90.339,207.879 95.266,218.200 102.440 C 219.740 103.510,221.974 105.064,223.164 105.893 C 225.607 107.594,226.556 107.673,236.496 107.005 C 249.862 106.106,265.299 113.445,272.920 124.321 C 274.133 126.052,276.341 128.893,277.826 130.634 C 289.338 144.131,298.767 164.539,302.758 184.600 C 311.098 226.521,293.991 267.493,255.800 297.063 C 252.764 299.413,241.659 306.362,238.011 308.195 C 227.006 313.722,222.762 315.277,209.000 318.828 C 198.393 321.565,197.357 322.023,188.200 328.011 C 167.784 341.363,148.729 342.732,127.839 332.349 C 121.048 328.973,110.010 321.116,106.983 317.501 C 106.384 316.785,103.083 313.071,99.647 309.247 C 91.932 300.661,90.290 298.429,87.153 292.272 C 85.788 289.593,83.497 285.420,82.061 283.000 C 80.626 280.580,76.771 273.920,73.496 268.200 C 67.596 257.896,65.528 254.793,60.436 248.600 C 45.972 231.009,41.316 222.914,38.577 210.600 C 37.592 206.169,37.338 190.724,38.144 184.174 C 40.543 164.656,54.907 141.540,73.543 127.207 C 76.482 124.946,80.082 121.820,81.543 120.258 C 86.756 114.689,87.546 114.040,91.301 112.237 C 96.823 109.587,100.482 108.498,107.497 107.416 C 115.417 106.195,118.989 104.941,124.600 101.412 C 132.566 96.403,143.964 91.767,154.200 89.373 C 158.735 88.313,176.693 87.682,181.709 88.408 "
       stroke="none"
       fill="#fc8494"
       fill-rule="evenodd" />
    <path
       style="fill:#d24150;fill-opacity:1;stroke:none;stroke-width:0.72438383px;stroke-linecap:butt;stroke-linejoin:miter;stroke-opacity:1"
       d="m 186.54285,162.43904 c -24.84553,58.40613 -11.81458,34.67199 19.41425,74.18969 -58.55944,0.74967 -80.86816,-53.92967 -19.41425,-74.18969 z"
       id="path850"
       inkscape:connector-curvature="0"
       sodipodi:nodetypes="ccc" />
  </g>
</svg>
